<svg width="320" height="204" viewBox="0 0 320 204" fill="none" xmlns="http://www.w3.org/2000/svg">
<path d="M176.45 44.684C232.653 61.1446 276.24 98.2232 298.811 142.655C256.214 168 199.753 175.776 143.551 159.316C87.3481 142.855 43.7607 105.777 21.1899 61.3454C63.7865 36.0001 120.247 28.2235 176.45 44.684Z" stroke="#FFF5E7" stroke-width="6"/>
<path d="M215.951 73.0861C237.488 85.4025 245.088 113.07 232.871 134.898C220.655 156.727 193.28 164.393 171.743 152.077C150.206 139.761 142.606 112.093 154.823 90.2647C167.039 68.4363 194.414 60.7698 215.951 73.0861Z" stroke="#FFFEF4" stroke-width="6"/>
<path d="M206.947 110.186L185.792 117.441M164.637 124.696L185.792 117.441M185.792 117.441L177.829 99.5939L193.936 134.309" stroke="#FF3600" stroke-width="6"/>
</svg>
