<svg width="501" height="70" viewBox="0 0 501 70" fill="none" xmlns="http://www.w3.org/2000/svg">
<g clip-path="url(#clip0_99_828)">
<path d="M3.24 25.6875C67.2868 18.2076 131.715 12.6301 196.35 8.98716C260.648 5.37014 325.136 3.65545 389.616 3.85604C425.977 3.97251 462.329 4.70368 498.646 6.02366C501.962 6.1466 501.953 2.29018 498.646 2.17371C433.673 -0.188031 368.579 -0.634496 303.562 0.879604C238.832 2.38723 174.179 5.82308 109.812 11.1742C73.7279 14.1765 37.7394 17.7871 1.86349 21.9735C-1.40032 22.3552 -0.0151492 26.0693 3.23134 25.6875H3.24Z" fill="#FFE2DE"/>
<path d="M69.5876 49.2568C91.3017 38.1835 116.368 32.5712 140.862 27.4417C165.356 22.3121 191.999 18.0326 217.913 14.9059C270.254 8.59481 323.184 6.27497 376.027 5.5185C405.64 5.09344 435.262 5.17269 464.883 5.3528C468.201 5.37442 468.209 1.08776 464.883 1.06615C358.764 0.417749 251.242 1.03013 147.453 21.6853C119.936 27.1607 91.3363 33.1476 66.9979 45.5609C64.1743 47.0018 66.764 50.7121 69.5963 49.264L69.5876 49.2568Z" fill="#FFE2DE"/>
</g>
<defs>
<clipPath id="clip0_99_828">
<rect width="501" height="70" fill="white"/>
</clipPath>
</defs>
</svg>
