<svg width="183" height="180" viewBox="0 0 183 180" fill="none" xmlns="http://www.w3.org/2000/svg">
<path d="M107.252 0C104.369 16.3592 78.3941 16.3592 75.5107 0C78.3941 16.3592 54 25.2507 45.6877 10.8579C54 25.2507 34.1059 41.9357 21.378 31.2587C34.1059 41.9357 21.1247 64.4236 5.51341 58.7413C21.1247 64.4236 16.6126 90 0 90C16.6126 90 21.1247 115.576 5.51341 121.259C21.1247 115.576 34.1059 138.064 21.378 148.741C34.1059 138.064 54 154.749 45.6877 169.142C54 154.749 78.3941 163.629 75.5107 180C78.3941 163.641 104.369 163.641 107.252 180C104.369 163.641 128.763 154.749 137.075 169.142C128.763 154.749 148.657 138.064 161.385 148.741C148.657 138.064 161.638 115.576 177.249 121.259C161.638 115.576 166.15 90 182.763 90C166.15 90 161.638 64.4236 177.249 58.7413C161.638 64.4236 148.657 41.9357 161.385 31.2587C148.657 41.9357 128.763 25.2507 137.075 10.8579C128.763 25.2507 104.369 16.3713 107.252 0Z" fill="#FB6E0B"/>
<path d="M38.4991 67.5468C38.5623 67.3612 38.6415 67.2304 38.7364 67.1544C38.8344 67.0694 38.932 67.0435 39.0292 67.0767C39.0733 67.0917 39.1262 67.1246 39.1879 67.1752C39.2407 67.2228 39.2845 67.2821 39.3195 67.3532C39.3486 67.4124 39.3688 67.4686 39.3803 67.5218C39.3859 67.5632 39.3945 67.5957 39.4062 67.6194C39.4375 67.7879 39.4866 67.9328 39.5537 68.0543C39.6207 68.1758 39.7453 68.3021 39.9274 68.4332L45.0827 72.0106C45.1855 72.0851 45.2899 72.1404 45.3959 72.1766C45.5019 72.2127 45.5903 72.2281 45.6612 72.2227C45.7351 72.2084 45.8311 72.1869 45.9494 72.1582C45.9613 72.1524 46.0041 72.1424 46.078 72.1281C46.1461 72.102 46.211 72.0995 46.2729 72.1206C46.2905 72.1266 46.3317 72.1505 46.3963 72.1923C46.5049 72.2786 46.5647 72.3927 46.5755 72.5344C46.5775 72.6732 46.5363 72.8662 46.452 73.1136L45.3901 76.2275C45.3268 76.413 45.2462 76.5482 45.1482 76.6331C45.0532 76.7092 44.9527 76.7292 44.8467 76.693C44.7937 76.675 44.7408 76.6421 44.688 76.5945C44.6294 76.5351 44.5886 76.4669 44.5655 76.39C44.5336 76.3101 44.5105 76.2332 44.4962 76.1593C44.4649 75.9909 44.4157 75.8459 44.3487 75.7244C44.2728 75.6 44.1394 75.4707 43.9485 75.3365L41.9525 73.9459L41.1527 76.2912L43.1487 77.6819C43.2515 77.7564 43.3559 77.8117 43.4619 77.8479C43.5679 77.884 43.6563 77.8994 43.7272 77.894C43.8011 77.8797 43.8972 77.8582 44.0154 77.8295C44.0273 77.8237 44.0701 77.8137 44.144 77.7994C44.2121 77.7733 44.277 77.7708 44.3389 77.7919C44.3565 77.798 44.3977 77.8218 44.4623 77.8636C44.571 77.95 44.6307 78.064 44.6415 78.2058C44.6435 78.3445 44.6023 78.5375 44.518 78.7849L43.4561 81.8988C43.3928 82.0843 43.3137 82.2151 43.2187 82.2912C43.1207 82.3761 43.0188 82.4005 42.9127 82.3643C42.8597 82.3463 42.8068 82.3134 42.754 82.2658C42.6954 82.2064 42.6546 82.1382 42.6315 82.0613C42.5996 81.9814 42.5765 81.9045 42.5622 81.8307C42.5309 81.6622 42.4818 81.5172 42.4147 81.3958C42.3388 81.2713 42.2054 81.142 42.0145 81.0078L36.8592 77.4304C36.7564 77.3559 36.652 77.3006 36.546 77.2645C36.4489 77.2313 36.3633 77.2219 36.2895 77.2361C36.2097 77.2385 36.1167 77.2512 36.0103 77.2741C35.9541 77.2943 35.8993 77.3102 35.8461 77.3216C35.7841 77.3301 35.7266 77.3252 35.6736 77.3072C35.6559 77.3011 35.6147 77.2772 35.5501 77.2355C35.4473 77.161 35.3949 77.0544 35.3929 76.9156C35.3821 76.7739 35.4189 76.5793 35.5032 76.332L36.5651 73.2181C36.6283 73.0326 36.7075 72.9018 36.8024 72.8257C36.9004 72.7407 36.998 72.7149 37.0952 72.748C37.1393 72.7631 37.1922 72.7959 37.2539 72.8465C37.3067 72.8941 37.3505 72.9534 37.3855 73.0245C37.4146 73.0837 37.4349 73.1399 37.4463 73.1931C37.4519 73.2345 37.4605 73.267 37.4722 73.2907C37.5035 73.4592 37.5527 73.6041 37.6197 73.7256C37.6868 73.8471 37.8113 73.9734 37.9934 74.1045L39.9542 75.4684L40.754 73.123L38.7932 71.7591C38.6904 71.6846 38.586 71.6293 38.48 71.5932C38.3829 71.56 38.2973 71.5506 38.2234 71.5648C38.1437 71.5672 38.0507 71.5799 37.9443 71.6028C37.888 71.623 37.8333 71.6389 37.7801 71.6503C37.7181 71.6587 37.6606 71.6539 37.6076 71.6358C37.5899 71.6298 37.5487 71.6059 37.4841 71.5642C37.3813 71.4897 37.3289 71.383 37.3269 71.2443C37.3161 71.1026 37.3528 70.908 37.4372 70.6607L38.4991 67.5468Z" fill="#004333"/>
<path d="M43.1821 61.318C43.7408 60.4016 44.3591 59.7729 45.0371 59.4319C45.707 59.0861 46.3886 59.1246 47.0819 59.5473C47.3449 59.7076 47.6146 59.9376 47.891 60.2373L49.2418 61.7331C49.2688 61.7605 49.3062 61.7888 49.354 61.818C49.4815 61.8957 49.5768 61.8828 49.64 61.7792C49.6983 61.6836 49.7071 61.5796 49.6662 61.4672C49.6223 61.3421 49.6076 61.2675 49.6222 61.2436C49.6465 61.2038 49.6938 61.1889 49.7642 61.199C49.8394 61.2011 49.9129 61.2241 49.9846 61.2678C50.2046 61.391 50.3727 61.6083 50.489 61.9197C50.6101 62.223 50.6549 62.5619 50.6234 62.9363C50.592 63.3106 50.4718 63.6691 50.2629 64.0118C50.0102 64.4262 49.7183 64.7346 49.3871 64.9372C49.0559 65.1397 48.7089 65.2069 48.346 65.1387C48.4872 65.5526 48.5378 65.9716 48.498 66.3955C48.4502 66.8145 48.3121 67.2113 48.0838 67.5859C47.8263 68.0082 47.5304 68.3143 47.1961 68.504C46.8538 68.6888 46.5115 68.7752 46.169 68.7632C45.8234 68.7383 45.5072 68.6385 45.2203 68.4636C45.0928 68.3858 44.9766 68.2986 44.8716 68.2018C44.3995 67.739 44.1527 67.2114 44.1313 66.619C44.1148 66.0187 44.2863 65.4236 44.6458 64.8339C45.0491 64.1725 45.5486 63.5862 46.1445 63.075L45.5378 62.2951C45.2662 61.9875 45.0388 61.7778 44.8555 61.666C44.6594 61.5574 44.4771 61.5337 44.3086 61.5949C44.1401 61.6561 43.9805 61.8103 43.8299 62.0573C43.9866 62.0872 44.1326 62.1435 44.2681 62.2261C44.563 62.4059 44.75 62.6729 44.8291 63.0272C44.9082 63.3815 44.8214 63.7659 44.5688 64.1803C44.3307 64.5708 44.06 64.8266 43.7566 64.9477C43.4501 65.0559 43.1693 65.0323 42.9143 64.8769C42.5159 64.6339 42.3212 64.2092 42.3303 63.6026C42.3394 62.996 42.6233 62.2344 43.1821 61.318ZM46.3959 64.1956C46.2598 64.4188 46.2357 64.6555 46.3236 64.9058C46.4084 65.1433 46.5504 65.3228 46.7496 65.4443C46.8771 65.522 46.9977 65.5573 47.1114 65.5501C47.2299 65.5349 47.3232 65.4716 47.3913 65.36C47.4544 65.2564 47.4826 65.1205 47.4758 64.9524C47.4659 64.7715 47.3942 64.6021 47.2609 64.4443L46.7087 63.7633C46.6022 63.8842 46.4979 64.0283 46.3959 64.1956Z" fill="#004333"/>
<path d="M51.4847 50.2325C51.8163 49.8654 52.2232 49.6796 52.7054 49.675C53.1875 49.6704 53.6571 49.8746 54.1142 50.2876C54.7305 50.8445 55.1667 51.6286 55.4228 52.6399C55.6789 53.6512 55.7209 54.6766 55.5489 55.7162C55.37 56.7495 54.9989 57.5778 54.4358 58.2011C53.8976 58.7966 53.3384 59.1719 52.7582 59.3268C52.1841 59.4748 51.6721 59.3455 51.2219 58.9388C51.0557 58.7886 50.8969 58.5885 50.7455 58.3384L49.1034 55.666C49.0606 55.6021 49.0253 55.5577 48.9976 55.5326C48.9283 55.4701 48.8538 55.4342 48.774 55.425C48.6943 55.4158 48.5985 55.4174 48.4868 55.4296C48.3029 55.4522 48.1764 55.4322 48.1071 55.3696C48.0039 55.2889 47.9532 55.1362 47.9551 54.9114C47.9569 54.6866 48.0233 54.4322 48.1543 54.148C48.2846 53.8506 48.478 53.56 48.7346 53.2761C49.1538 52.8121 49.5935 52.5552 50.0535 52.5055C50.5129 52.4426 50.9226 52.5738 51.2827 52.8992C51.442 53.0431 51.5901 53.2272 51.727 53.4516L53.3399 56.1354C53.3835 56.2125 53.426 56.2698 53.4676 56.3073C53.5576 56.3887 53.655 56.4201 53.7598 56.4015C53.8646 56.383 53.967 56.3184 54.0672 56.2076C54.2048 56.0552 54.2986 55.8192 54.3485 55.4995C54.3977 55.1666 54.3884 54.7871 54.3205 54.361C54.2458 53.9286 54.0916 53.4937 53.8579 53.0562C53.3653 53.1142 52.948 53.0957 52.6062 53.0006C52.2706 52.8987 51.9782 52.7351 51.7289 52.5098C51.3757 52.1907 51.1655 51.8247 51.0984 51.4118C51.0243 50.9926 51.153 50.5995 51.4847 50.2325Z" fill="#004333"/>
<path d="M58.354 44.3307C59.2996 43.6159 60.0999 43.2507 60.7551 43.2351C61.4046 43.2121 61.9066 43.4351 62.2612 43.9041C62.3682 44.0456 62.4518 44.1871 62.5121 44.3288C62.7719 44.9046 62.7265 45.4946 62.3761 46.0989C62.0274 46.6901 61.5069 47.2474 60.8145 47.7709C60.4646 48.0354 60.1201 48.2608 59.7811 48.4469C60.0663 48.8397 60.376 49.0326 60.7101 49.0257C61.0442 49.0188 61.4048 48.869 61.792 48.5764C61.9707 48.4413 62.1278 48.2932 62.2635 48.1321C62.3935 47.9636 62.5541 47.7428 62.7453 47.4695C62.8975 47.2374 63.0108 47.0933 63.0853 47.037C63.1672 46.9751 63.2447 46.9925 63.3179 47.0893C63.5223 47.3442 63.6338 47.6929 63.6523 48.1352C63.6652 48.5701 63.5503 49.0372 63.3077 49.5365C63.0651 50.0359 62.6646 50.4966 62.1062 50.9188C61.2798 51.5435 60.4447 51.8473 59.6009 51.83C58.7571 51.8127 58.034 51.4057 57.4318 50.6091C57.2629 50.3858 57.0957 50.1027 56.9301 49.7598C56.4239 48.7034 56.309 47.7079 56.5854 46.7735C56.8636 45.8261 57.4532 45.0118 58.354 44.3307ZM59.3527 47.7177C59.3881 47.7026 59.4318 47.6754 59.4839 47.636C59.7966 47.3996 59.9251 47.0743 59.8694 46.6601C59.8137 46.2459 59.647 45.863 59.3694 45.5112C59.2043 45.3084 59.066 45.2492 58.9543 45.3336C58.8724 45.3955 58.8263 45.5357 58.8159 45.7542C58.7999 45.9652 58.8346 46.2432 58.9199 46.5882C59.0127 46.9276 59.1569 47.3041 59.3527 47.7177Z" fill="#004333"/>
<path d="M78.208 41.1021C78.212 41.229 78.2337 41.3498 78.273 41.4646C78.3063 41.5617 78.3483 41.641 78.399 41.7026C78.4467 41.7553 78.4913 41.7992 78.5329 41.8343C78.5804 41.8575 78.6115 41.8764 78.6264 41.891C78.7449 41.9491 78.8193 42.0222 78.8496 42.1105C78.8557 42.1282 78.862 42.1753 78.8685 42.252C78.8756 42.3877 78.8264 42.5033 78.7209 42.5986C78.6213 42.6821 78.4478 42.7662 78.2006 42.8509L75.0619 43.9268C74.8765 43.9903 74.7202 44.0094 74.5931 43.9839C74.4748 43.9554 74.3975 43.8881 74.3611 43.7822C74.343 43.7292 74.3366 43.6673 74.3419 43.5964C74.3441 43.5167 74.3613 43.4516 74.3933 43.4012C74.4312 43.3389 74.4852 43.2661 74.5553 43.1829C74.6693 43.055 74.7538 42.9273 74.8089 42.8C74.8639 42.6726 74.8844 42.4879 74.8706 42.246L74.8245 40.989L72.7585 41.6972L72.6597 42.5747C72.6216 42.9528 72.6343 43.2345 72.6978 43.42C72.7341 43.5259 72.7821 43.6081 72.8416 43.6667C72.8981 43.7164 72.9738 43.7644 73.0686 43.8108C73.1546 43.8603 73.2155 43.9085 73.2514 43.9554C73.293 43.9905 73.3186 44.0508 73.3281 44.1363C73.3382 44.2808 73.295 44.3992 73.1983 44.4916C73.1075 44.572 72.9429 44.6531 72.7045 44.7348L70.7312 45.4112C70.5282 45.4808 70.3616 45.4984 70.2314 45.4641C70.0982 45.421 70.0104 45.3376 69.9681 45.214C69.9196 45.0727 69.9348 44.9442 70.0135 44.8284C70.0804 44.7069 70.1987 44.5627 70.3685 44.396C70.5879 44.1728 70.7559 43.9721 70.8725 43.794C70.986 43.6071 71.0608 43.3792 71.0969 43.1103L71.7792 37.4154C71.881 36.532 72.1171 35.8393 72.4877 35.3374C72.8641 34.8236 73.4541 34.429 74.2575 34.1536C75.1581 33.8449 75.9191 33.7912 76.5406 33.9926C77.1592 34.1851 77.5804 34.608 77.8043 35.2614C77.8981 35.5351 77.9508 35.8328 77.9624 36.1544L78.208 41.1021ZM74.7679 39.5285L74.6708 36.957C74.6698 36.839 74.6497 36.7226 74.6103 36.6078C74.5528 36.44 74.4619 36.3331 74.3375 36.2869C74.219 36.2289 74.0758 36.2286 73.9081 36.2861C73.6962 36.3587 73.5364 36.4826 73.4286 36.6576C73.3209 36.8327 73.2465 37.1049 73.2053 37.4742L72.9138 40.164L74.7679 39.5285Z" fill="#004333"/>
<path d="M97.4586 31.9032C97.8412 31.9094 98.0305 32.0338 98.0266 32.2764C98.0255 32.3418 98.0201 32.3884 98.0103 32.4162C97.9808 32.5091 97.9376 32.583 97.8807 32.6381C97.8239 32.6839 97.7437 32.7386 97.64 32.8022C97.4986 32.884 97.3805 32.9754 97.2855 33.0765C97.1905 33.1777 97.1086 33.335 97.0398 33.5486L95.2031 39.7356C95.0354 40.293 94.8284 40.6816 94.5821 40.9017C94.3452 41.1219 94.0167 41.2285 93.5968 41.2217C93.2235 41.2157 92.9126 41.1033 92.6641 40.8845C92.4251 40.6566 92.202 40.3123 91.9948 39.8515L89.9534 35.3658L88.7112 39.4342C88.6812 39.5551 88.6655 39.6621 88.6639 39.7555C88.662 39.8768 88.679 39.9797 88.7149 40.0643C88.7604 40.1398 88.8198 40.2201 88.893 40.3053C88.9937 40.4282 89.0434 40.5317 89.042 40.6157C89.0411 40.6717 89.0358 40.7136 89.026 40.7415C88.9865 40.8715 88.901 40.9635 88.7695 41.0173C88.6381 41.0619 88.4417 41.082 88.1804 41.0778L86.6546 41.053C86.272 41.0468 86.0827 40.9224 86.0866 40.6798C86.0877 40.6144 86.0931 40.5678 86.1029 40.54C86.1324 40.4471 86.1755 40.3778 86.2323 40.3321C86.2892 40.277 86.3695 40.2176 86.4732 40.154C86.6145 40.0722 86.7327 39.9808 86.8277 39.8797C86.9227 39.7785 87.0046 39.6212 87.0734 39.4076L88.9532 33.1513L88.7367 32.6857C88.6464 32.4976 88.6024 32.3335 88.6047 32.1935C88.6094 31.9042 88.7984 31.7626 89.1716 31.7687L91.2434 31.8023C91.542 31.8071 91.7648 31.8808 91.9119 32.0232C92.0684 32.1564 92.2325 32.3971 92.4042 32.7453L94.3814 36.8799L95.402 33.522C95.4321 33.3918 95.4479 33.2847 95.4492 33.2007C95.4512 33.0794 95.4295 32.9811 95.384 32.9056C95.348 32.821 95.2934 32.7361 95.2201 32.6509C95.1194 32.528 95.0698 32.4245 95.0711 32.3405C95.072 32.2845 95.0774 32.2426 95.0872 32.2147C95.1266 32.0847 95.2121 31.9974 95.3435 31.9529C95.475 31.899 95.6715 31.8742 95.9328 31.8784L97.4586 31.9032Z" fill="#004333"/>
<path d="M103.883 35.1025C104.414 35.206 104.784 35.3826 104.992 35.6323C105.2 35.882 105.27 36.1809 105.203 36.5291C105.162 36.7398 105.09 36.9351 104.989 37.115L102.924 40.9776C102.875 41.0822 102.843 41.1757 102.827 41.2581C102.804 41.3772 102.808 41.4779 102.839 41.5601C102.873 41.6331 102.924 41.7098 102.994 41.7899C103.046 41.8666 103.081 41.9304 103.1 41.9816C103.12 42.0236 103.115 42.0749 103.084 42.1354C103.015 42.2456 102.906 42.3148 102.758 42.343C102.61 42.3712 102.394 42.3577 102.11 42.3024L98.9769 41.6922C98.7387 41.6458 98.5717 41.5753 98.4761 41.4806C98.3822 41.3767 98.3661 41.2642 98.4277 41.1431C98.4857 41.0403 98.6007 40.9628 98.7725 40.9107C98.9242 40.8642 99.0556 40.7995 99.1669 40.7165C99.2781 40.6336 99.3872 40.4884 99.4941 40.2811L101.463 36.5425C101.507 36.4654 101.534 36.3994 101.544 36.3444C101.564 36.2436 101.556 36.1613 101.521 36.0974C101.488 36.0243 101.432 35.9468 101.353 35.8649C101.275 35.7737 101.224 35.6971 101.198 35.635C101.172 35.5729 101.181 35.4987 101.227 35.4125C101.323 35.2125 101.647 35.0854 102.199 35.0314C102.754 34.9682 103.315 34.9919 103.883 35.1025ZM105.395 32.2449C105.752 32.3144 106.027 32.4915 106.219 32.7761C106.412 33.0515 106.476 33.3587 106.41 33.6977C106.364 33.9359 106.254 34.157 106.081 34.361C105.918 34.5669 105.707 34.7208 105.449 34.8228C105.203 34.9174 104.942 34.9379 104.667 34.8844C104.319 34.8166 104.048 34.645 103.855 34.3696C103.672 34.0868 103.61 33.7704 103.669 33.4205C103.713 33.1915 103.816 32.9786 103.978 32.7819C104.142 32.5761 104.348 32.4213 104.596 32.3175C104.845 32.2138 105.111 32.1895 105.395 32.2449Z" fill="#004333"/>
<path d="M111.935 37.9765C112.472 38.1652 112.915 38.41 113.264 38.7109C113.617 39.0029 113.855 39.324 113.979 39.6744C114.116 40.019 114.126 40.3542 114.012 40.68C113.888 41.0322 113.663 41.2795 113.336 41.4218C113.018 41.5672 112.652 41.5672 112.238 41.4218C111.815 41.2733 111.522 41.0516 111.358 40.7567C111.198 40.453 111.183 40.1163 111.313 39.7464C111.375 39.5703 111.466 39.3947 111.587 39.2195C111.183 39.1864 110.785 39.2641 110.392 39.4526C110.011 39.6354 109.69 39.9431 109.43 40.3758C109.284 40.6214 109.174 40.8498 109.1 41.0612C108.933 41.5367 108.938 41.9441 109.115 42.2835C109.293 42.6229 109.628 42.8792 110.121 43.0524C110.403 43.1515 110.655 43.2101 110.876 43.2285C111.1 43.238 111.335 43.2314 111.58 43.2088C111.787 43.1827 111.93 43.1835 112.01 43.2113C112.062 43.2299 112.093 43.2555 112.101 43.2881C112.113 43.3119 112.106 43.359 112.081 43.4295C111.976 43.7584 111.718 44.0538 111.31 44.3158C110.913 44.5721 110.425 44.7369 109.845 44.8102C109.277 44.8778 108.69 44.8049 108.082 44.5914C107.448 44.3686 106.925 44.0561 106.512 43.6539C106.111 43.246 105.85 42.7783 105.729 42.2509C105.619 41.7178 105.667 41.1607 105.871 40.5795C105.967 40.3066 106.109 40.0151 106.297 39.7053C106.918 38.6969 107.731 38.0577 108.736 37.7876C109.75 37.5206 110.816 37.5836 111.935 37.9765Z" fill="#004333"/>
<path d="M120.264 42.9869C121.29 43.5808 121.937 44.1766 122.206 44.7743C122.479 45.364 122.469 45.9133 122.174 46.4221C122.085 46.5756 121.987 46.7076 121.88 46.8181C121.45 47.2811 120.889 47.4683 120.196 47.3799C119.516 47.288 118.8 47.0246 118.049 46.5897C117.669 46.3699 117.328 46.1399 117.025 45.8997C116.773 46.3151 116.716 46.6754 116.852 46.9806C116.988 47.2858 117.266 47.56 117.686 47.8032C117.88 47.9155 118.077 48.0028 118.278 48.0653C118.484 48.1197 118.75 48.182 119.076 48.2522C119.349 48.3024 119.526 48.3508 119.607 48.3976C119.695 48.449 119.709 48.5273 119.649 48.6323C119.493 48.9196 119.215 49.1577 118.815 49.3464C118.419 49.5271 117.944 49.6026 117.389 49.5728C116.835 49.543 116.255 49.3528 115.649 49.002C114.753 48.4829 114.148 47.8312 113.837 47.0468C113.525 46.2625 113.62 45.4382 114.12 44.5739C114.26 44.3316 114.456 44.0676 114.708 43.7819C115.485 42.9053 116.358 42.4131 117.326 42.3051C118.308 42.1938 119.287 42.421 120.264 42.9869ZM117.53 45.2219C117.558 45.2487 117.6 45.2784 117.657 45.3112C117.996 45.5076 118.345 45.4997 118.706 45.2876C119.066 45.0755 119.354 44.7732 119.57 44.3808C119.693 44.15 119.694 43.9995 119.573 43.9293C119.484 43.8779 119.337 43.8898 119.132 43.965C118.931 44.0322 118.688 44.1721 118.403 44.3846C118.127 44.6019 117.836 44.8809 117.53 45.2219Z" fill="#004333"/>
<path d="M135.785 52.3716C136.711 53.4222 137.205 54.3926 137.267 55.2827C137.337 56.1666 136.983 56.9509 136.205 57.6356C135.82 57.9749 135.314 58.2966 134.686 58.6006C133.67 59.085 132.751 59.3409 131.929 59.3681C131.107 59.3953 130.304 59.1823 129.52 58.7292C128.741 58.283 127.914 57.556 127.039 56.5483L124.533 53.6813C124.403 53.5342 124.329 53.4005 124.31 53.2803C124.285 53.1531 124.315 53.0524 124.399 52.9784C124.441 52.9414 124.496 52.9118 124.563 52.8896C124.645 52.8551 124.718 52.8466 124.783 52.8639C124.842 52.8743 124.93 52.8964 125.047 52.9302C125.209 52.9868 125.356 53.0126 125.488 53.0078C125.627 53.01 125.802 52.9616 126.013 52.8626L131.66 50.1656C131.776 50.1135 131.876 50.0504 131.96 49.9763C132.037 49.9085 132.087 49.839 132.112 49.7678C132.149 49.6974 132.184 49.6104 132.218 49.5067C132.253 49.3634 132.299 49.2671 132.355 49.2178C132.376 49.1993 132.421 49.1724 132.489 49.137C132.605 49.0848 132.72 49.0889 132.835 49.1491C132.964 49.2101 133.114 49.3387 133.287 49.5348L135.785 52.3716ZM132.548 55.7074C133.367 55.3097 133.966 54.9443 134.344 54.6112C134.715 54.2842 134.903 53.982 134.907 53.7046C134.912 53.4271 134.787 53.1448 134.534 52.8576L134.331 52.6265L127.976 55.705L128.198 55.9571C128.481 56.2793 128.785 56.4904 129.11 56.5903C129.447 56.6911 129.881 56.6757 130.412 56.544C130.95 56.4062 131.662 56.1273 132.548 55.7074Z" fill="#004333"/>
<path d="M141.182 63.7647C141.699 64.7055 141.936 65.5548 141.894 66.3124C141.861 67.0656 141.488 67.6376 140.776 68.0284C140.506 68.1766 140.172 68.296 139.775 68.3865L137.805 68.8132C137.768 68.823 137.725 68.8414 137.676 68.8683C137.545 68.9402 137.508 69.0293 137.567 69.1357C137.621 69.2338 137.707 69.2932 137.824 69.3137C137.955 69.3379 138.027 69.3623 138.04 69.3869C138.063 69.4278 138.052 69.4762 138.008 69.5322C137.969 69.5964 137.912 69.6487 137.839 69.6891C137.622 69.8186 137.35 69.8562 137.022 69.802C136.699 69.756 136.383 69.6261 136.074 69.4124C135.765 69.1988 135.514 68.916 135.321 68.5643C135.087 68.1388 134.965 67.7321 134.954 67.344C134.943 66.956 135.058 66.6216 135.298 66.3408C134.868 66.2571 134.48 66.0925 134.132 65.8469C133.792 65.5968 133.517 65.2795 133.306 64.895C133.068 64.4614 132.95 64.0524 132.952 63.668C132.962 63.2792 133.057 62.9392 133.238 62.6482C133.432 62.3609 133.676 62.1364 133.97 61.9747C134.101 61.9028 134.235 61.8454 134.371 61.8026C135.007 61.6236 135.588 61.6722 136.112 61.9486C136.641 62.2332 137.072 62.6781 137.404 63.2836C137.777 63.9626 138.037 64.6878 138.183 65.4591L139.162 65.3211C139.564 65.2388 139.859 65.146 140.047 65.0427C140.239 64.9267 140.35 64.7804 140.381 64.6038C140.412 64.4271 140.358 64.212 140.218 63.9584C140.114 64.0794 139.993 64.178 139.854 64.2544C139.551 64.4206 139.226 64.4498 138.88 64.342C138.533 64.2342 138.243 63.9676 138.009 63.5422C137.789 63.1413 137.702 62.7792 137.748 62.4558C137.807 62.1361 137.967 61.9043 138.229 61.7606C138.638 61.536 139.103 61.5786 139.625 61.8885C140.146 62.1984 140.666 62.8238 141.182 63.7647ZM137.086 65.1191C136.961 64.89 136.767 64.7513 136.506 64.7028C136.258 64.6581 136.032 64.6919 135.827 64.8042C135.697 64.876 135.606 64.9631 135.556 65.0653C135.51 65.1756 135.518 65.2881 135.581 65.4026C135.639 65.509 135.743 65.601 135.892 65.6788C136.054 65.7603 136.237 65.7825 136.44 65.7455L137.306 65.6056C137.254 65.4531 137.181 65.2909 137.086 65.1191Z" fill="#004333"/>
<path d="M145.611 77.8422C145.738 78.2326 145.68 78.5953 145.436 78.9303C145.204 79.2712 144.817 79.53 144.276 79.7067C143.805 79.8602 143.272 79.941 142.676 79.9491C141.477 79.9771 140.276 79.7852 139.071 79.3734C137.87 78.9705 136.822 78.3943 135.93 77.645C135.04 76.9046 134.443 76.0685 134.139 75.1369C133.988 74.6756 133.938 74.2502 133.988 73.8609C134.04 73.4805 134.172 73.1626 134.383 72.9071C134.591 72.6428 134.846 72.4613 135.148 72.3629C135.281 72.3194 135.435 72.2938 135.609 72.286C135.883 72.2848 136.117 72.3556 136.311 72.4985C136.505 72.6413 136.644 72.8414 136.728 73.0987C136.862 73.5069 136.833 73.8845 136.642 74.2316C136.445 74.5904 136.114 74.885 135.649 75.1153C135.861 75.6744 136.276 76.1183 136.893 76.4468C136.826 75.9682 136.866 75.5818 137.016 75.2876C137.177 74.9993 137.484 74.7371 137.937 74.5008L141.024 72.904C141.184 72.8223 141.286 72.7447 141.331 72.6712C141.387 72.6037 141.403 72.53 141.377 72.4501C141.356 72.388 141.301 72.3228 141.209 72.2543C141.121 72.1947 141.071 72.1472 141.06 72.1117C141.037 72.0407 141.101 71.9806 141.251 71.9314C141.376 71.8908 141.516 71.8696 141.672 71.8676C142.23 71.8622 142.753 72.0204 143.241 72.3422C143.738 72.661 144.08 73.1088 144.269 73.6856C144.454 74.2534 144.422 74.7254 144.171 75.1017C143.924 75.4868 143.463 75.8337 142.788 76.1424L139.991 77.4975C139.777 77.5965 139.693 77.7126 139.736 77.8457C139.788 78.0054 139.991 78.1454 140.344 78.2656C140.707 78.383 141.187 78.4568 141.786 78.4871C141.939 78.1427 142.147 77.8488 142.412 77.6055C142.676 77.3621 142.985 77.1825 143.34 77.0667C143.615 76.9769 143.875 76.9313 144.12 76.9298C144.51 76.9204 144.83 76.9977 145.08 77.1616C145.341 77.3314 145.518 77.5583 145.611 77.8422Z" fill="#004333"/>
<path d="M57.7138 120.343C58.0671 120.728 58.3438 121.127 58.5439 121.538C58.7573 121.95 58.9188 122.417 59.0283 122.937L59.442 122.994C59.7241 123.039 59.9365 123.092 60.0793 123.151C60.2284 123.216 60.366 123.318 60.4922 123.456C60.6436 123.621 60.7256 123.786 60.7382 123.952C60.7577 124.111 60.6987 124.254 60.5611 124.38C60.5061 124.431 60.4382 124.474 60.3573 124.51L58.536 125.383C58.3267 125.486 58.153 125.531 58.0148 125.519C57.883 125.513 57.7508 125.438 57.6183 125.293C57.4795 125.142 57.4013 124.967 57.3834 124.768C57.3788 124.569 57.4106 124.217 57.4787 123.712C57.5331 123.219 57.5239 122.822 57.451 122.521C57.3913 122.222 57.2669 121.969 57.0776 121.762C56.9389 121.611 56.7706 121.531 56.5728 121.522C56.3818 121.507 56.2142 121.566 56.0697 121.699C55.9046 121.85 55.8255 122.075 55.8324 122.372C55.8463 122.663 55.9074 123.082 56.0158 123.629C56.1306 124.182 56.2092 124.654 56.2517 125.046C56.2942 125.437 56.2639 125.832 56.1608 126.231C56.0576 126.629 55.841 126.98 55.5108 127.283C55.2975 127.478 55.0527 127.64 54.7764 127.766C54.0747 128.106 53.3617 128.171 52.6376 127.961C51.9203 127.745 51.2715 127.321 50.6911 126.688C50.2559 126.213 49.9451 125.764 49.7587 125.339C49.5723 124.915 49.4552 124.415 49.4075 123.838L48.7573 123.75C48.4552 123.711 48.2261 123.661 48.0702 123.601C47.9211 123.536 47.7835 123.434 47.6573 123.296C47.5122 123.138 47.4334 122.976 47.4207 122.81C47.4144 122.652 47.4766 122.512 47.6073 122.392C47.6761 122.329 47.7609 122.277 47.8618 122.235L49.8629 121.331C50.0922 121.222 50.2889 121.181 50.4529 121.208C50.6168 121.235 50.7682 121.324 50.907 121.475C51.0521 121.633 51.1264 121.825 51.1298 122.05C51.1396 122.281 51.0947 122.633 50.995 123.104C50.8804 123.614 50.8464 124.019 50.8929 124.318C50.9457 124.624 51.0919 124.908 51.3316 125.17C51.5019 125.355 51.6587 125.471 51.8021 125.517C51.9586 125.563 52.1212 125.547 52.2897 125.469C52.3367 125.451 52.3946 125.411 52.4634 125.347C52.6285 125.196 52.7073 124.978 52.6998 124.694C52.6923 124.409 52.6335 124.014 52.5233 123.507C52.4148 122.961 52.3422 122.502 52.3055 122.13C52.2756 121.752 52.3122 121.364 52.4154 120.966C52.5248 120.574 52.7515 120.221 53.0955 119.905C53.3362 119.684 53.6083 119.505 53.9115 119.366C54.5187 119.075 55.1717 119.021 55.8706 119.203C56.5696 119.385 57.1839 119.765 57.7138 120.343Z" fill="#004333"/>
<path d="M65.0406 129.812C65.1803 129.921 65.264 130.034 65.2916 130.15C65.3265 130.272 65.3038 130.385 65.2234 130.488C65.2004 130.517 65.1528 130.563 65.0807 130.625C64.7323 130.874 64.3852 130.863 64.0395 130.593L63.3995 130.093L60.4435 132.172C60.3206 132.254 60.2131 132.354 60.1212 132.471C60.0178 132.604 59.9828 132.724 60.0161 132.833C60.0495 132.942 60.1323 133.049 60.2647 133.152C60.3824 133.244 60.541 133.344 60.7406 133.453C60.8461 133.499 60.9319 133.549 60.9981 133.6C61.0496 133.641 61.072 133.688 61.0654 133.742C61.0718 133.794 61.0549 133.846 61.0147 133.898C60.9072 134.05 60.6561 134.144 60.2615 134.18C59.8799 134.213 59.4376 134.158 58.9344 134.014C58.437 133.862 57.9566 133.605 57.4932 133.243C56.993 132.853 56.6812 132.426 56.5577 131.962C56.4342 131.498 56.5276 131.068 56.8378 130.671C56.9814 130.487 57.1487 130.333 57.3397 130.21L59.7521 128.577C59.8865 128.481 59.9825 128.396 60.0399 128.322C60.1548 128.175 60.2157 128.021 60.2226 127.861C60.2368 127.706 60.2245 127.525 60.1856 127.317C60.1557 127.128 60.1445 126.983 60.1521 126.882C60.1654 126.774 60.2204 126.681 60.3172 126.603C60.4213 126.53 60.5413 126.505 60.6771 126.528C60.8129 126.552 60.9838 126.644 61.1898 126.804L61.8077 127.287L63.0457 127.135C63.478 127.082 63.8308 127.085 64.1041 127.144C64.3848 127.209 64.6869 127.368 65.0106 127.621C65.474 127.983 65.5678 128.341 65.2921 128.694C65.2059 128.804 65.1107 128.896 65.0066 128.968L64.4558 129.355L65.0406 129.812Z" fill="#004333"/>
<path d="M69.7719 131.825C70.715 132.337 71.3738 132.923 71.7481 133.583C72.1269 134.235 72.1225 134.918 71.735 135.631C71.588 135.902 71.3717 136.183 71.0862 136.474L69.6596 137.897C69.6336 137.926 69.6072 137.964 69.5805 138.014C69.5092 138.145 69.5269 138.239 69.6335 138.297C69.7319 138.351 69.8362 138.354 69.9464 138.308C70.0692 138.258 70.1429 138.24 70.1675 138.253C70.2085 138.275 70.2257 138.322 70.2191 138.392C70.2208 138.468 70.2015 138.542 70.1614 138.616C70.0493 138.842 69.8407 139.021 69.5355 139.152C69.2386 139.288 68.9024 139.35 68.5269 139.337C68.1515 139.325 67.7874 139.222 67.4348 139.031C67.0083 138.799 66.6856 138.523 66.4668 138.202C66.248 137.882 66.1636 137.538 66.2136 137.173C65.8072 137.334 65.3913 137.406 64.9659 137.387C64.545 137.36 64.1419 137.242 63.7564 137.033C63.3217 136.797 63.0013 136.516 62.7951 136.192C62.5934 135.859 62.49 135.522 62.485 135.179C62.4926 134.833 62.5765 134.512 62.7369 134.217C62.8082 134.086 62.8895 133.965 62.981 133.855C63.4196 133.361 63.9342 133.088 64.5248 133.037C65.1236 132.991 65.7265 133.132 66.3334 133.462C67.0141 133.832 67.6246 134.301 68.1649 134.871L68.9135 134.226C69.2072 133.939 69.4053 133.702 69.5078 133.513C69.6065 133.312 69.6211 133.129 69.5515 132.963C69.4819 132.798 69.32 132.647 69.0658 132.508C69.0437 132.666 68.9948 132.815 68.9191 132.954C68.7543 133.258 68.4969 133.458 68.147 133.555C67.797 133.651 67.4088 133.584 66.9823 133.352C66.5805 133.134 66.3115 132.876 66.1754 132.579C66.052 132.279 66.0615 131.997 66.2041 131.735C66.4268 131.325 66.8414 131.109 67.4477 131.088C68.0539 131.067 68.8287 131.312 69.7719 131.825ZM67.0582 135.178C66.8285 135.053 66.5909 135.041 66.3453 135.141C66.1123 135.238 65.9401 135.388 65.8287 135.593C65.7575 135.725 65.7282 135.847 65.7411 135.96C65.7622 136.078 65.8301 136.168 65.9449 136.23C66.0515 136.288 66.1886 136.309 66.3562 136.294C66.5364 136.275 66.702 136.195 66.853 136.054L67.5056 135.469C67.3796 135.368 67.2304 135.271 67.0582 135.178Z" fill="#004333"/>
<path d="M81.1579 136.405C81.5489 136.531 81.8085 136.791 81.9368 137.185C82.0768 137.573 82.0597 138.038 81.8856 138.58C81.7343 139.051 81.4872 139.531 81.1442 140.018C80.4643 141.006 79.6044 141.867 78.5646 142.601C77.5337 143.338 76.453 143.849 75.3227 144.133C74.2012 144.42 73.174 144.413 72.241 144.113C71.7789 143.965 71.4047 143.757 71.1184 143.488C70.841 143.223 70.6607 142.929 70.5775 142.609C70.4855 142.285 70.488 141.972 70.585 141.67C70.6278 141.537 70.6972 141.397 70.793 141.251C70.9529 141.028 71.1475 140.88 71.377 140.807C71.6064 140.733 71.85 140.738 72.1077 140.821C72.5164 140.952 72.8054 141.197 72.9746 141.555C73.1498 141.925 73.1945 142.366 73.1086 142.878C73.6858 143.034 74.2886 142.958 74.9169 142.65C74.4894 142.424 74.2003 142.165 74.0495 141.871C73.9104 141.572 73.878 141.169 73.9522 140.664L74.4681 137.227C74.4957 137.049 74.4928 136.921 74.4595 136.842C74.4379 136.756 74.3871 136.701 74.3071 136.675C74.2449 136.655 74.1594 136.662 74.0506 136.695C73.9506 136.732 73.8829 136.744 73.8473 136.733C73.7762 136.71 73.765 136.623 73.8135 136.472C73.8535 136.348 73.9185 136.222 74.0086 136.094C74.3313 135.639 74.766 135.308 75.3127 135.101C75.8623 134.886 76.4259 134.871 77.0035 135.056C77.5722 135.239 77.9356 135.542 78.0937 135.965C78.2607 136.391 78.2714 136.968 78.1259 137.696L77.5837 140.757C77.539 140.987 77.5833 141.124 77.7166 141.167C77.8765 141.218 78.1088 141.136 78.4134 140.92C78.7209 140.696 79.0625 140.349 79.4381 139.882C79.2486 139.556 79.1327 139.215 79.0905 138.859C79.0482 138.502 79.0842 138.146 79.1984 137.79C79.2869 137.515 79.4023 137.278 79.5448 137.078C79.7656 136.757 80.0157 136.543 80.2949 136.437C80.5859 136.325 80.8736 136.314 81.1579 136.405Z" fill="#004333"/>
<path d="M98.3796 135.039C98.5756 135.036 98.7254 135.066 98.8292 135.13C98.9422 135.194 98.9996 135.277 99.0012 135.379C99.002 135.426 98.989 135.487 98.9622 135.562C98.9352 135.628 98.8942 135.689 98.8391 135.746C98.7932 135.793 98.7472 135.831 98.701 135.86C98.664 135.879 98.6363 135.899 98.6179 135.918C98.47 136.004 98.3502 136.099 98.2585 136.203C98.1668 136.308 98.0901 136.468 98.0283 136.683L96.4044 142.744C96.3691 142.866 96.3523 142.983 96.3541 143.095C96.3559 143.207 96.3714 143.296 96.4004 143.361C96.4388 143.425 96.4915 143.508 96.5585 143.61C96.568 143.619 96.5919 143.656 96.6303 143.721C96.6779 143.776 96.7022 143.836 96.7032 143.902C96.7035 143.92 96.695 143.967 96.6775 144.042C96.633 144.174 96.5458 144.268 96.4161 144.326C96.2862 144.375 96.0906 144.402 95.8293 144.406L92.5397 144.459C92.3438 144.462 92.1893 144.432 92.0762 144.369C91.9725 144.305 91.9197 144.217 91.9179 144.105C91.917 144.049 91.93 143.988 91.957 143.923C91.9931 143.847 92.0434 143.786 92.108 143.738C92.1724 143.681 92.237 143.633 92.3017 143.595C92.4496 143.509 92.5694 143.413 92.6611 143.309C92.7526 143.196 92.8292 143.026 92.8909 142.801L93.5248 140.453L91.0472 140.493L90.4132 142.842C90.3778 142.964 90.3611 143.08 90.3629 143.192C90.3647 143.304 90.3802 143.393 90.4092 143.458C90.4476 143.522 90.5003 143.606 90.5673 143.707C90.5768 143.716 90.6007 143.753 90.6391 143.818C90.6867 143.873 90.711 143.934 90.712 143.999C90.7123 144.018 90.7038 144.064 90.6863 144.139C90.6418 144.271 90.5546 144.366 90.4249 144.424C90.295 144.472 90.0994 144.499 89.8381 144.503L86.5485 144.557C86.3526 144.56 86.2027 144.53 86.099 144.466C85.986 144.402 85.9285 144.315 85.9267 144.203C85.9258 144.147 85.9388 144.086 85.9657 144.02C86.0019 143.945 86.0522 143.883 86.1168 143.835C86.1812 143.778 86.2458 143.731 86.3105 143.692C86.4584 143.606 86.5782 143.511 86.6699 143.406C86.7614 143.293 86.838 143.124 86.8997 142.899L88.5235 136.837C88.5589 136.716 88.5756 136.599 88.5738 136.487C88.5722 136.384 88.5521 136.3 88.5137 136.236C88.4845 136.161 88.4412 136.078 88.3837 135.986C88.3456 135.94 88.3122 135.893 88.2834 135.847C88.2545 135.792 88.2396 135.736 88.2387 135.68C88.2384 135.661 88.247 135.614 88.2644 135.54C88.2998 135.418 88.3824 135.332 88.5123 135.283C88.642 135.225 88.8375 135.194 89.0988 135.19L92.3884 135.137C92.5844 135.133 92.7342 135.164 92.8379 135.227C92.951 135.291 93.0083 135.374 93.01 135.476C93.0108 135.523 92.9978 135.584 92.971 135.659C92.944 135.725 92.903 135.786 92.8479 135.843C92.802 135.891 92.756 135.929 92.7098 135.957C92.6727 135.977 92.6451 135.996 92.6267 136.015C92.4787 136.101 92.3589 136.196 92.2673 136.301C92.1756 136.405 92.0989 136.565 92.037 136.78L91.4164 139.087L93.8941 139.047L94.5147 136.74C94.5501 136.618 94.5668 136.501 94.565 136.389C94.5634 136.287 94.5433 136.203 94.5049 136.138C94.4757 136.064 94.4324 135.981 94.3749 135.888C94.3368 135.842 94.3034 135.796 94.2746 135.75C94.2457 135.694 94.2308 135.639 94.2299 135.583C94.2296 135.564 94.2382 135.517 94.2556 135.442C94.291 135.32 94.3736 135.235 94.5035 135.186C94.6332 135.128 94.8288 135.097 95.0901 135.093L98.3796 135.039Z" fill="#004333"/>
<path d="M103.34 136.001C104.387 135.762 105.268 135.767 105.986 136.015C106.701 136.254 107.149 136.769 107.329 137.561C107.398 137.861 107.421 138.214 107.399 138.622L107.27 140.633C107.269 140.671 107.275 140.718 107.287 140.772C107.32 140.918 107.396 140.977 107.514 140.95C107.624 140.925 107.704 140.859 107.756 140.752C107.815 140.633 107.859 140.57 107.886 140.564C107.931 140.554 107.975 140.577 108.017 140.635C108.068 140.69 108.103 140.759 108.121 140.841C108.186 141.084 108.148 141.356 108.006 141.657C107.873 141.955 107.662 142.224 107.371 142.462C107.081 142.701 106.74 142.865 106.349 142.954C105.876 143.062 105.451 143.068 105.075 142.972C104.699 142.876 104.409 142.674 104.205 142.367C104.006 142.756 103.742 143.085 103.41 143.352C103.076 143.61 102.696 143.788 102.268 143.886C101.786 143.996 101.36 143.997 100.991 143.89C100.62 143.774 100.319 143.589 100.089 143.335C99.8657 143.07 99.7167 142.774 99.6419 142.446C99.6087 142.3 99.5901 142.156 99.5863 142.014C99.5885 141.353 99.7944 140.808 100.204 140.379C100.623 139.948 101.169 139.656 101.842 139.503C102.597 139.33 103.366 139.279 104.148 139.35L104.283 138.371C104.314 137.962 104.306 137.652 104.258 137.443C104.199 137.227 104.089 137.08 103.928 137.002C103.766 136.924 103.544 136.917 103.262 136.981C103.35 137.114 103.412 137.258 103.447 137.413C103.524 137.75 103.463 138.07 103.264 138.374C103.066 138.677 102.73 138.883 102.257 138.991C101.811 139.093 101.439 139.078 101.14 138.945C100.849 138.801 100.67 138.583 100.603 138.292C100.5 137.837 100.668 137.401 101.109 136.985C101.55 136.568 102.294 136.24 103.34 136.001ZM103.52 140.311C103.265 140.37 103.079 140.517 102.961 140.755C102.85 140.981 102.82 141.208 102.872 141.436C102.905 141.581 102.964 141.692 103.049 141.769C103.142 141.843 103.253 141.866 103.38 141.837C103.498 141.81 103.615 141.735 103.731 141.613C103.854 141.48 103.925 141.31 103.945 141.105L104.048 140.234C103.887 140.242 103.711 140.268 103.52 140.311Z" fill="#004333"/>
<path d="M114.382 131.92C115.035 131.621 115.648 131.601 116.22 131.863C116.791 132.124 117.249 132.628 117.591 133.374C117.774 133.773 117.912 134.218 118.004 134.71C118.233 135.878 118.126 136.898 117.683 137.768C117.237 138.631 116.556 139.272 115.64 139.693C115.054 139.961 114.489 140.072 113.943 140.025L114.161 141.573C114.17 141.682 114.194 141.779 114.233 141.863C114.276 141.957 114.332 142.023 114.402 142.063C114.475 142.112 114.56 142.15 114.655 142.178C114.754 142.215 114.822 142.251 114.858 142.285C114.903 142.316 114.931 142.365 114.941 142.432C114.958 142.558 114.912 142.671 114.804 142.772C114.7 142.881 114.517 142.996 114.254 143.117L111.34 144.455C111.12 144.556 110.945 144.59 110.817 144.556C110.684 144.535 110.614 144.46 110.605 144.33C110.591 144.254 110.596 144.186 110.618 144.124C110.641 144.062 110.683 143.996 110.744 143.927C110.832 143.784 110.893 143.648 110.927 143.52C110.964 143.4 110.968 143.229 110.938 143.007L109.997 136.059C109.988 135.971 109.971 135.902 109.948 135.851C109.905 135.758 109.851 135.695 109.785 135.664C109.715 135.624 109.624 135.594 109.512 135.574C109.396 135.545 109.31 135.512 109.252 135.477C109.195 135.442 109.16 135.376 109.146 135.279C109.107 135.061 109.297 134.769 109.714 134.403C110.127 134.028 110.597 133.72 111.123 133.478C111.496 133.307 111.844 133.26 112.167 133.338C112.499 133.411 112.758 133.606 112.944 133.921C113.182 132.918 113.661 132.251 114.382 131.92ZM114.641 136.377C114.498 135.528 114.36 134.96 114.228 134.672C114.146 134.494 114.064 134.393 113.981 134.369C113.903 134.333 113.813 134.338 113.711 134.385C113.635 134.42 113.555 134.503 113.471 134.634C113.384 134.756 113.319 134.93 113.279 135.154L113.804 138.949C113.952 139.004 114.099 138.998 114.243 138.932C114.472 138.827 114.63 138.6 114.716 138.252C114.808 137.892 114.783 137.267 114.641 136.377Z" fill="#004333"/>
<path d="M122.785 126.075C123.357 125.64 123.951 125.489 124.566 125.62C125.181 125.751 125.736 126.144 126.233 126.798C126.498 127.148 126.729 127.552 126.925 128.012C127.402 129.104 127.518 130.122 127.275 131.068C127.026 132.007 126.5 132.78 125.697 133.39C125.184 133.779 124.656 134.009 124.113 134.081L124.662 135.546C124.694 135.65 124.738 135.739 124.795 135.814C124.857 135.895 124.926 135.948 125.003 135.972C125.085 136.003 125.176 136.023 125.275 136.029C125.379 136.044 125.453 136.064 125.496 136.09C125.547 136.11 125.584 136.152 125.609 136.215C125.652 136.334 125.633 136.455 125.549 136.577C125.472 136.706 125.317 136.858 125.087 137.033L122.533 138.97C122.339 139.117 122.176 139.188 122.044 139.183C121.909 139.191 121.824 139.133 121.788 139.008C121.758 138.937 121.747 138.869 121.756 138.804C121.765 138.738 121.792 138.665 121.836 138.585C121.891 138.426 121.921 138.28 121.926 138.148C121.937 138.022 121.903 137.855 121.825 137.644L119.401 131.066C119.373 130.982 119.342 130.918 119.308 130.873C119.246 130.791 119.179 130.742 119.108 130.726C119.032 130.702 118.936 130.692 118.823 130.697C118.703 130.694 118.612 130.681 118.548 130.659C118.484 130.637 118.436 130.58 118.401 130.489C118.316 130.284 118.438 129.958 118.766 129.51C119.088 129.054 119.48 128.652 119.941 128.302C120.268 128.054 120.598 127.933 120.93 127.938C121.27 127.938 121.565 128.072 121.814 128.34C121.829 127.309 122.153 126.554 122.785 126.075ZM124.004 130.369C123.68 129.572 123.422 129.047 123.231 128.794C123.112 128.638 123.01 128.557 122.924 128.552C122.84 128.534 122.753 128.559 122.664 128.626C122.597 128.677 122.537 128.775 122.484 128.921C122.425 129.06 122.4 129.243 122.408 129.47L123.744 133.061C123.901 133.083 124.042 133.046 124.169 132.95C124.37 132.798 124.475 132.542 124.484 132.184C124.495 131.812 124.335 131.207 124.004 130.369Z" fill="#004333"/>
<path d="M130.853 118.938C131.124 118.63 131.466 118.496 131.878 118.536C132.29 118.563 132.71 118.764 133.137 119.14C133.508 119.467 133.849 119.885 134.159 120.395C134.792 121.413 135.238 122.545 135.495 123.792C135.759 125.031 135.795 126.226 135.604 127.376C135.418 128.518 135.002 129.457 134.354 130.193C134.033 130.557 133.692 130.817 133.332 130.972C132.978 131.12 132.637 131.168 132.31 131.116C131.976 131.071 131.69 130.944 131.452 130.734C131.347 130.641 131.247 130.522 131.152 130.376C131.011 130.14 130.953 129.903 130.977 129.663C131.002 129.423 131.104 129.202 131.282 128.999C131.566 128.677 131.906 128.51 132.302 128.498C132.711 128.485 133.133 128.62 133.568 128.904C133.942 128.437 134.113 127.854 134.082 127.155C133.704 127.457 133.351 127.618 133.021 127.639C132.691 127.646 132.309 127.515 131.876 127.245L128.931 125.399C128.78 125.302 128.661 125.254 128.575 125.253C128.488 125.238 128.417 125.263 128.361 125.326C128.318 125.375 128.29 125.456 128.278 125.569C128.271 125.675 128.255 125.742 128.231 125.77C128.181 125.826 128.097 125.802 127.978 125.697C127.88 125.611 127.79 125.501 127.709 125.367C127.421 124.889 127.291 124.359 127.321 123.775C127.343 123.185 127.554 122.662 127.955 122.207C128.35 121.759 128.773 121.547 129.224 121.571C129.682 121.588 130.215 121.809 130.824 122.233L133.413 123.954C133.606 124.087 133.749 124.101 133.842 123.996C133.953 123.87 133.97 123.624 133.894 123.259C133.811 122.887 133.63 122.435 133.352 121.904C132.978 121.948 132.619 121.918 132.275 121.814C131.931 121.71 131.619 121.535 131.339 121.288C131.122 121.097 130.95 120.896 130.825 120.686C130.618 120.355 130.522 120.04 130.537 119.742C130.55 119.43 130.655 119.162 130.853 118.938Z" fill="#004333"/>
<path d="M97.4193 86.5137C125.577 70.251 125.577 109.738 97.4193 93.4869C125.577 109.75 91.3871 129.487 91.3871 96.9735C91.3871 129.487 57.1968 109.75 85.355 93.4869C57.1968 109.75 57.1968 70.263 85.355 86.5137C57.1968 70.251 91.3871 50.5137 91.3871 83.0271C91.3871 50.5137 125.577 70.251 97.4193 86.5137Z" fill="#FFAD03"/>
<path d="M44.5534 102.016C44.5534 103.922 43.0092 105.454 41.1151 105.454C39.221 105.454 37.6768 103.91 37.6768 102.016C37.6768 100.122 39.221 98.5776 41.1151 98.5776C43.0092 98.5776 44.5534 100.122 44.5534 102.016Z" fill="#F4E8D2"/>
<path d="M138.221 102.016C138.221 103.922 139.765 105.454 141.659 105.454C143.553 105.454 145.097 103.91 145.097 102.016C145.097 100.122 143.553 98.5776 141.659 98.5776C139.765 98.5776 138.221 100.122 138.221 102.016Z" fill="#F4E8D2"/>
</svg>
