<svg width="1440" height="1024" viewBox="0 0 1440 1024" fill="none" xmlns="http://www.w3.org/2000/svg">
<g clip-path="url(#clip0_117_1160)">
<path d="M167.509 68.8723C167.878 69.5093 168.919 69.4624 169.601 69.0971C170.946 68.3805 171.791 67.0129 172.935 66.006C174.079 64.999 175.932 64.4089 177.053 65.4439C178.122 66.4322 177.795 68.2072 177.151 69.5093C175.638 72.577 172.776 74.9422 169.484 75.8555C167.336 76.4504 164.81 76.3614 163.148 74.872C161.299 73.2187 161.07 70.4132 161.318 67.9403C161.985 61.224 165.305 54.8075 170.395 50.3956C172.673 48.4191 175.601 46.7658 178.571 47.2997C181.386 47.8055 183.557 50.2082 184.622 52.8732C185.687 55.5381 185.855 58.456 186.079 61.3177C186.284 63.9311 186.009 77.6306 190.697 76.2302C192.158 75.7946 193.083 74.3849 193.825 73.0501C196.837 67.6265 198.938 61.6971 200.007 55.5803C200.171 54.6342 200.311 53.66 200.091 52.728C199.792 51.4822 198.887 50.4658 198.48 49.2528C197.869 47.4402 198.541 45.2717 200.068 44.1242C201.595 42.9768 203.859 42.9393 205.419 44.0353C206.768 44.9813 207.394 46.5082 207.697 48.0772C207.777 48.4753 207.632 51.5805 207.749 51.6508C207.749 51.6508 209.486 52.7608 210.373 53.0558C214.258 54.3438 218.53 54.4281 222.462 53.2853C223.755 52.9107 225.361 52.4844 226.276 53.4727C227.444 54.7279 226.318 56.606 225.165 57.3975C224.287 58.0017 223.232 58.2827 222.186 58.4654C217.139 59.3599 210.826 58.9291 206.091 56.8355C205.162 56.9526 202.743 66.2589 202.37 67.3033C200.502 72.5583 199.134 78.202 195.45 82.5577C194.502 83.6818 193.386 84.7122 192.032 85.2836C189.459 86.3702 186.34 85.5646 184.234 83.724C182.129 81.8833 180.929 79.1762 180.41 76.4223C179.36 70.8628 179.845 64.6477 179.705 58.9946C179.673 57.6926 179.631 56.3484 179.075 55.1728C178.174 53.2666 176.185 52.6624 174.471 53.927C170.409 56.9151 168.018 63.0881 167.411 67.9169C167.378 68.1932 167.346 68.4836 167.448 68.7459C167.467 68.7927 167.49 68.8395 167.514 68.8817L167.509 68.8723Z" fill="white"/>
</g>
<defs>
<clipPath id="clip0_117_1160">
<rect width="66" height="43" fill="white" transform="translate(161 43)"/>
</clipPath>
</defs>
</svg>
