<svg width="66" height="43" viewBox="0 0 66 43" fill="none" xmlns="http://www.w3.org/2000/svg">
<g clip-path="url(#clip0_117_1179)">
<path d="M6.5091 25.8723C6.87797 26.5093 7.91922 26.4624 8.60093 26.0971C9.94568 25.3805 10.7908 24.0129 11.9348 23.006C13.0788 21.999 14.9324 21.4089 16.0531 22.4439C17.1223 23.4322 16.7955 25.2072 16.1511 26.5093C14.6383 29.577 11.776 31.9422 8.4842 32.8555C6.33634 33.4504 3.81027 33.3614 2.14801 31.872C0.298986 30.2187 0.0701928 27.4132 0.317664 24.9403C0.985368 18.224 4.30521 11.8075 9.39471 7.39557C11.6733 5.41909 14.6009 3.76579 17.5706 4.29972C20.3861 4.80554 22.5574 7.20822 23.6219 9.87318C24.6865 12.5381 24.8546 15.456 25.0788 18.3177C25.2842 20.9311 25.0087 34.6306 29.6966 33.2302C31.1581 32.7946 32.0826 31.3849 32.8251 30.0501C35.8367 24.6265 37.9379 18.6971 39.0072 12.5803C39.1706 11.6342 39.3107 10.66 39.0912 9.72799C38.7924 8.48216 37.8865 7.46582 37.4803 6.25277C36.8686 4.44022 37.541 2.27172 39.0679 1.12424C40.5947 -0.0232342 42.8593 -0.0607028 44.4188 1.03526C45.7682 1.98134 46.3939 3.50819 46.6974 5.07719C46.7768 5.4753 46.6321 8.58051 46.7488 8.65077C46.7488 8.65077 48.4858 9.76078 49.3729 10.0558C53.2577 11.3438 57.5301 11.4281 61.4616 10.2853C62.755 9.91065 64.3612 9.48444 65.2764 10.4727C66.4437 11.7279 65.3184 13.606 64.1651 14.3975C63.2873 15.0017 62.2321 15.2827 61.1861 15.4654C56.1387 16.3599 49.8258 15.9291 45.0912 13.8355C44.162 13.9526 41.7433 23.2589 41.3698 24.3033C39.5021 29.5583 38.134 35.202 34.45 39.5577C33.5021 40.6818 32.3861 41.7122 31.0321 42.2836C28.4593 43.3702 25.3402 42.5646 23.2344 40.724C21.1286 38.8833 19.9286 36.1762 19.4103 33.4223C18.3597 27.8628 18.8453 21.6477 18.7052 15.9946C18.6725 14.6926 18.6305 13.3484 18.0749 12.1728C17.1737 10.2666 15.1846 9.66242 13.471 10.927C9.40871 13.9151 7.01805 20.0881 6.41105 24.9169C6.37836 25.1932 6.34568 25.4836 6.4484 25.7459C6.46708 25.7927 6.49043 25.8395 6.51377 25.8817L6.5091 25.8723Z" fill="white"/>
</g>
<defs>
<clipPath id="clip0_117_1179">
<rect width="66" height="43" fill="white"/>
</clipPath>
</defs>
</svg>
