<svg width="242" height="262" viewBox="0 0 242 262" fill="none" xmlns="http://www.w3.org/2000/svg">
<g clip-path="url(#clip0_44_439)">
<path d="M150.533 24.9875L150.568 24.9969C199.734 38.0119 229.057 88.6145 216.005 137.922L197.99 205.976C190.003 236.147 159.092 254.187 128.996 246.22L59.8158 227.908C29.7309 219.944 11.779 188.981 19.7689 158.798L37.7836 90.7444C50.8478 41.44 101.366 11.9725 150.533 24.9875Z" fill="#003205"/>
<path d="M111.738 225.123C110.748 224.861 109.927 224.099 109.641 223.036C95.7928 171.898 118.782 129.436 119.773 127.648C120.569 126.213 122.358 125.699 123.791 126.484C125.221 127.28 125.731 129.073 124.946 130.51C124.721 130.932 102.147 172.732 115.355 221.474C115.782 223.055 114.847 224.68 113.281 225.114C112.764 225.255 112.234 225.254 111.75 225.126L111.738 225.123Z" fill="#03925E" stroke="#3D342D" stroke-linecap="round" stroke-linejoin="round"/>
<path d="M125.141 190.463C125.141 190.463 125.282 173.769 159.388 166.066C174.876 162.572 177.787 136.702 174.037 118.738C174.037 118.738 198.19 148.823 184.22 172.374C169.683 196.875 145.79 180.919 125.129 190.46L125.141 190.463Z" fill="#03925E" stroke="#3D342D" stroke-linecap="round" stroke-linejoin="round"/>
<path d="M125.141 190.463C125.141 190.463 143.868 172.968 165.597 172.835C187.325 172.702 183.116 135.734 174.048 118.741" stroke="#3D342D" stroke-linecap="round" stroke-linejoin="round"/>
<path d="M113.052 215.536C113.052 215.536 115.337 198.992 82.7012 186.506C67.8726 180.834 68.7523 154.818 75.0573 137.579C75.0573 137.579 46.7877 163.9 57.2035 189.197C68.0307 215.515 93.9971 203.139 113.052 215.536Z" fill="#03925E" stroke="#3D342D" stroke-linecap="round" stroke-linejoin="round"/>
<path d="M113.052 215.536C113.052 215.536 97.0518 195.557 75.5733 192.314C54.0917 189.082 63.6156 153.104 75.0573 137.579" stroke="#3D342D" stroke-linecap="round" stroke-linejoin="round"/>
<path d="M54.6566 97.8937L61.4027 102.109C61.6607 102.279 61.5542 102.681 61.2493 102.689L53.4326 102.708C53.332 102.707 53.2307 102.756 53.1702 102.841L48.2792 110.114C48.1129 110.362 47.7237 110.258 47.7132 109.965L47.3749 101.231C47.3646 101.127 47.3157 101.026 47.2276 100.977L40.4856 96.8888C40.2127 96.728 40.334 96.3172 40.639 96.3093L48.6167 96.2063C48.7173 96.2076 48.8186 96.1585 48.8673 96.0701L53.591 88.9044C53.7573 88.6573 54.1465 88.7603 54.1571 89.0542L54.4944 97.6483C54.4929 97.7492 54.5567 97.842 54.6416 97.9024L54.6566 97.8937Z" fill="#F9AD49" stroke="#3D342D" stroke-miterlimit="10"/>
<path d="M192.775 158.999L199.521 163.214C199.779 163.384 199.673 163.786 199.368 163.794L191.551 163.813C191.451 163.812 191.349 163.861 191.289 163.946L186.398 171.219C186.232 171.467 185.842 171.363 185.832 171.07L185.494 162.336C185.483 162.232 185.434 162.131 185.346 162.082L178.604 157.994C178.331 157.833 178.453 157.422 178.758 157.414L186.735 157.311C186.836 157.313 186.937 157.263 186.986 157.175L191.71 150.009C191.876 149.762 192.265 149.865 192.276 150.159L192.613 158.753C192.612 158.854 192.675 158.947 192.76 159.007L192.775 158.999Z" fill="#F9AD49" stroke="#3D342D" stroke-miterlimit="10"/>
<path d="M136.849 97.2251L151.689 84.7386C151.689 84.7386 155.844 72.7142 146.091 67.2722C136.326 61.827 128.512 70.4654 128.512 70.4654L124.958 91.0904L136.864 97.2164L136.849 97.2251Z" fill="#E37F6E" stroke="#3D342D" stroke-miterlimit="10"/>
<path d="M124.943 91.0989L128.464 70.883C128.464 70.883 123.782 59.063 112.846 61.3317C101.898 63.5973 101.587 75.2597 101.587 75.2597L112.325 93.1882L124.946 91.087L124.943 91.0989Z" fill="#E37F6E" stroke="#3D342D" stroke-miterlimit="10"/>
<path d="M112.334 93.2031L101.784 75.7548C101.784 75.7548 90.4904 69.981 83.7463 78.9153C77.0022 87.8497 84.4343 96.8158 84.4343 96.8158L104.317 103.18L112.334 93.2031Z" fill="#E37F6E" stroke="#3D342D" stroke-miterlimit="10"/>
<path d="M103.949 102.855L84.6061 97.0258C84.6061 97.0258 72.2741 100.039 72.9852 111.225C73.6964 122.411 85.1552 124.318 85.1552 124.318L104.372 116.129L103.946 102.867L103.949 102.855Z" fill="#E37F6E" stroke="#3D342D" stroke-miterlimit="10"/>
<path d="M104.39 116.109L84.8211 124.293C84.8211 124.293 77.3617 134.595 85.1237 142.649C92.8888 150.69 102.867 144.7 102.867 144.7L112.238 125.982L104.39 116.109Z" fill="#E37F6E" stroke="#3D342D" stroke-miterlimit="10"/>
<path d="M112.238 125.982L102.963 144.144C102.963 144.144 104.064 156.813 115.205 157.775C126.334 158.734 129.329 148.566 129.329 148.566L126.255 128.427L112.253 125.973L112.238 125.982Z" fill="#E37F6E" stroke="#3D342D" stroke-miterlimit="10"/>
<path d="M138.14 121.955L152.76 134.659C152.76 134.659 156.702 146.751 146.847 152.039C136.992 157.328 129.326 148.578 129.326 148.578L126.141 127.903L138.152 121.958L138.14 121.955Z" fill="#E37F6E" stroke="#3D342D" stroke-miterlimit="10"/>
<path d="M141.57 109.333L162.144 109.224C162.144 109.224 172.999 115.793 168.971 126.243C164.931 136.691 153.417 135.086 153.417 135.086L137.537 121.517L141.57 109.333Z" fill="#E37F6E" stroke="#3D342D" stroke-miterlimit="10"/>
<path d="M136.849 97.2252L152.275 83.9571C152.275 83.9571 164.795 81.8546 168.513 92.4069C172.232 102.959 162.436 109.263 162.436 109.263L141.554 109.342L136.834 97.2339L136.849 97.2252Z" fill="#E37F6E" stroke="#3D342D" stroke-miterlimit="10"/>
<path d="M130.887 94.1026C132.594 90.6565 134.333 87.2316 136.108 83.816C137.838 80.477 139.622 76.5958 142.187 74.0095C140.9 77.6807 139.02 81.0177 136.966 84.2961C134.94 87.468 133.05 91.2707 130.887 94.1026Z" fill="#3D342D"/>
<path d="M118.795 92.1548C117.89 88.2324 117.023 84.3074 116.187 80.3651C115.366 76.503 114.245 72.2068 114.534 68.3979C115.908 72.2168 116.614 76.1752 117.142 80.1877C117.633 84.1018 118.624 88.4141 118.795 92.1548Z" fill="#3D342D"/>
<path d="M139.158 103.139C142.904 101.385 146.652 99.6684 150.417 97.9821C154.111 96.3275 158.175 94.2772 162.057 93.7229C158.512 95.9105 154.701 97.4835 150.798 98.8802C146.984 100.225 142.878 102.15 139.158 103.139Z" fill="#3D342D"/>
<path d="M139.663 115.676C143.53 116.801 147.387 117.961 151.239 119.145C155.007 120.307 159.318 121.423 162.493 123.541C158.477 122.883 154.672 121.573 150.917 120.072C147.257 118.597 143.004 117.357 139.663 115.676Z" fill="#3D342D"/>
<path d="M132.003 125.164C134.012 128.063 135.991 130.979 137.949 133.927C139.864 136.801 142.215 139.98 143.065 143.204C140.659 140.567 138.814 137.573 137.116 134.453C135.349 131.404 133.611 128.337 131.892 125.249L131.996 125.188L132.003 125.164Z" fill="#3D342D"/>
<path d="M119.326 127.428C119.031 130.881 118.708 134.34 118.351 137.789C118 141.163 117.79 145.056 116.412 148.02C116.232 144.505 116.711 141.075 117.388 137.66C117.964 134.244 118.567 130.822 119.217 127.412L119.338 127.432L119.326 127.428Z" fill="#3D342D"/>
<path d="M107.831 120.462C105.389 122.967 102.941 125.445 100.449 127.898C98.0379 130.285 95.3585 133.208 92.4111 134.617C94.5151 131.77 97.0827 129.412 99.7935 127.181C102.419 124.889 105.077 122.619 107.753 120.378L107.831 120.462Z" fill="#3D342D"/>
<path d="M104.003 109.514C100.627 109.683 97.2596 109.817 93.8902 109.912C90.5946 110.014 86.8049 110.315 83.7707 109.334C87.1363 108.681 90.4981 108.711 93.8836 108.936C97.2588 109.057 100.628 109.203 103.996 109.398L104 109.526L104.003 109.514Z" fill="#3D342D"/>
<path d="M107.73 98.6288C104.677 96.2892 101.653 93.9323 98.6365 91.5517C95.6841 89.2134 92.2276 86.7291 90.1729 83.7173C93.5304 85.6692 96.4422 88.1612 99.266 90.7944C101.999 93.3909 105.368 95.966 107.73 98.6288Z" fill="#3D342D"/>
<path d="M141.498 116.283C145.407 105.124 139.556 92.9129 128.429 89.01C117.303 85.1071 105.114 90.9899 101.205 102.15C97.2965 113.309 103.147 125.52 114.274 129.423C125.4 133.326 137.589 127.443 141.498 116.283Z" fill="#F9AD49" stroke="#3D342D" stroke-miterlimit="10"/>
<path d="M110.609 128.513C99.9957 122.602 96.1686 109.123 102.091 98.4779C108.002 87.8295 121.453 83.9738 132.063 89.8959C142.677 95.8062 146.504 109.285 140.581 119.931C134.671 130.579 121.22 134.435 110.609 128.513ZM131.398 91.074C121.433 85.5253 108.817 89.1339 103.268 99.1313C97.7194 109.129 101.301 121.771 111.266 127.32C121.23 132.868 133.846 129.26 139.395 119.262C144.944 109.265 141.363 96.6227 131.398 91.074Z" fill="#3D342D"/>
<path d="M123.174 108.222C120.639 112.791 121.036 117.87 124.06 119.556C127.084 121.243 131.602 118.908 134.136 114.339C136.671 109.77 136.274 104.692 133.247 103.017C130.223 101.331 125.705 103.666 123.17 108.234L123.174 108.222Z" fill="#FFFEF4" stroke="#3D342D" stroke-miterlimit="10"/>
<path d="M134.173 103.806C134.173 103.806 130.826 103.629 127.356 110.063C127.313 110.128 127.327 110.22 127.388 110.274L129.431 112.233C129.563 112.356 129.441 112.577 129.264 112.53L126.629 111.807C126.546 111.785 126.46 111.826 126.426 111.905C126.006 112.921 123.595 118.977 125.096 119.792C129.33 122.103 139.583 112.262 134.177 103.794L134.173 103.806Z" fill="#3D342D"/>
<path d="M135.504 110.461L125.685 105.077C125.685 105.077 129.901 100.828 133.45 103.108C136.998 105.389 135.504 110.461 135.504 110.461Z" fill="#FFFEF4" stroke="#3D342D" stroke-miterlimit="10"/>
<path d="M110.329 101.064C107.794 105.633 108.192 110.711 111.216 112.398C114.24 114.084 118.757 111.749 121.292 107.18C123.826 102.612 123.429 97.5329 120.405 95.8465C117.381 94.1601 112.863 96.4952 110.329 101.064Z" fill="#FFFEF4" stroke="#3D342D" stroke-miterlimit="10"/>
<path d="M121.317 96.6446C121.317 96.6446 117.969 96.4671 114.499 102.902C114.457 102.966 114.47 103.059 114.532 103.113L116.575 105.071C116.706 105.194 116.585 105.415 116.408 105.369L113.772 104.646C113.69 104.624 113.603 104.664 113.57 104.744C113.15 105.759 110.739 111.816 112.239 112.631C116.474 114.941 126.726 105.101 121.32 96.6327L121.317 96.6446Z" fill="#3D342D"/>
<path d="M122.659 103.302L112.84 97.9188C112.84 97.9188 117.057 93.6689 120.605 95.9497C124.153 98.2305 122.659 103.302 122.659 103.302Z" fill="#FFFEF4" stroke="#3D342D" stroke-miterlimit="10"/>
<path d="M120.78 117.6C120.021 118.082 118.629 119.194 118.238 121.002C117.902 122.558 116.809 123.066 115.853 123.054C115.4 123.048 114.979 122.924 114.674 122.742C113.692 122.254 112.585 120.429 114.266 118.799C114.518 118.562 114.726 118.301 114.895 118.042C115.67 116.88 115.81 115.588 115.818 114.843C115.816 114.754 115.935 114.735 115.963 114.819C116.137 115.257 116.398 115.655 116.671 116.006C117.334 116.839 118.282 117.356 119.331 117.495C119.771 117.548 120.248 117.56 120.71 117.48C120.791 117.463 120.836 117.577 120.762 117.62L120.78 117.6Z" fill="#3D342D"/>
<path d="M115.917 122.527C115.553 122.519 115.226 122.42 114.985 122.28C114.215 121.899 113.325 120.448 114.663 119.157C114.864 118.97 115.021 118.759 115.163 118.556C115.663 119.004 117.208 120.603 115.917 122.527Z" fill="#E37F6E"/>
<path d="M125.208 123.277C124.858 123.552 124.356 123.495 124.071 123.141C123.786 122.787 123.855 122.286 124.209 122C124.559 121.726 125.061 121.783 125.346 122.137C125.619 122.488 125.562 122.991 125.208 123.277Z" fill="#3D342D"/>
<path d="M128.916 124.955C128.566 125.229 128.063 125.172 127.778 124.819C127.505 124.468 127.563 123.964 127.916 123.678C128.266 123.404 128.769 123.461 129.054 123.815C129.327 124.165 129.269 124.669 128.916 124.955Z" fill="#3D342D"/>
<path d="M126.041 126.282C125.69 126.557 125.188 126.5 124.903 126.146C124.63 125.795 124.688 125.291 125.041 125.005C125.391 124.731 125.893 124.788 126.178 125.142C126.452 125.492 126.394 125.996 126.041 126.282Z" fill="#3D342D"/>
<path d="M107.249 113.271C106.899 113.545 106.396 113.488 106.111 113.134C105.838 112.784 105.896 112.28 106.249 111.994C106.599 111.72 107.102 111.777 107.387 112.131C107.66 112.481 107.602 112.985 107.249 113.271Z" fill="#3D342D"/>
<path d="M110.957 114.949C110.606 115.223 110.104 115.166 109.819 114.812C109.546 114.461 109.604 113.958 109.957 113.672C110.307 113.397 110.81 113.454 111.094 113.808C111.368 114.159 111.31 114.663 110.957 114.949Z" fill="#3D342D"/>
<path d="M108.081 116.276C107.731 116.55 107.229 116.493 106.944 116.139C106.671 115.789 106.728 115.285 107.082 114.999C107.432 114.725 107.934 114.782 108.219 115.135C108.504 115.489 108.435 115.99 108.081 116.276Z" fill="#3D342D"/>
<path d="M123.924 92.5631C123.924 92.5631 118.772 90.0476 113.445 93.915" stroke="#3D342D" stroke-miterlimit="10" stroke-linecap="round"/>
<path d="M134.394 98.3975C134.394 98.3975 139.239 101.452 138.771 108.036" stroke="#3D342D" stroke-miterlimit="10" stroke-linecap="round"/>
<path d="M148.973 193.924L163.856 186.993C163.856 186.993 169.902 178.076 163.11 171.456C156.328 164.851 148.026 170.184 148.026 170.184L140.583 186.287L148.969 193.936L148.973 193.924Z" fill="#E37F6E" stroke="#3D342D" stroke-miterlimit="10"/>
<path d="M140.583 186.286L147.911 170.52C147.911 170.52 146.681 159.817 137.239 159.254C127.782 158.699 124.976 168.157 124.976 168.157L129.814 185.207L140.598 186.277L140.583 186.286Z" fill="#E37F6E" stroke="#3D342D" stroke-miterlimit="10"/>
<path d="M129.799 185.216L125.008 168.609C125.008 168.609 117.038 161.386 109.564 167.216C102.089 173.047 106.189 182.016 106.189 182.016L121.049 191.62L129.796 185.228L129.799 185.216Z" fill="#E37F6E" stroke="#3D342D" stroke-miterlimit="10"/>
<path d="M120.829 191.258L106.29 182.207C106.29 182.207 95.5409 181.956 93.6601 191.254C91.7793 200.552 100.738 204.658 100.738 204.658L118.262 202.196L120.829 191.258Z" fill="#E37F6E" stroke="#3D342D" stroke-miterlimit="10"/>
<path d="M118.259 202.208L100.455 204.583C100.455 204.583 92.0963 211.368 96.6761 219.668C101.256 227.968 110.739 225.276 110.739 225.276L122.512 212.029L118.259 202.208Z" fill="#E37F6E" stroke="#3D342D" stroke-miterlimit="10"/>
<path d="M122.512 212.029L110.929 224.846C110.929 224.846 109.053 235.461 117.935 238.711C126.829 241.964 131.509 234.293 131.509 234.293L133.415 217.13L122.5 212.026L122.512 212.029Z" fill="#E37F6E" stroke="#3D342D" stroke-miterlimit="10"/>
<path d="M144.588 214.443L153.741 228.066C153.741 228.066 154.31 238.835 145.083 240.987C135.856 243.139 131.513 234.281 131.513 234.281L133.455 216.647L144.576 214.44L144.588 214.443Z" fill="#E37F6E" stroke="#3D342D" stroke-miterlimit="10"/>
<path d="M150.161 204.882L167.013 209.343C167.013 209.343 174.448 217.108 168.847 224.775C163.249 232.431 154.186 228.576 154.186 228.576L144.187 213.957L150.161 204.882Z" fill="#E37F6E" stroke="#3D342D" stroke-miterlimit="10"/>
<path d="M148.972 193.924L164.512 186.47C164.512 186.47 175.214 187.518 175.929 196.972C176.653 206.44 167.258 209.421 167.258 209.421L150.164 204.87L148.972 193.924Z" fill="#E37F6E" stroke="#3D342D" stroke-miterlimit="10"/>
<path d="M144.772 190.053C146.912 187.595 149.073 185.154 151.262 182.747C153.335 180.448 155.79 177.466 158.443 176.118C156.66 178.898 154.392 181.222 151.954 183.424C149.612 185.69 147.242 187.922 144.851 190.137L144.761 190.05L144.772 190.053Z" fill="#3D342D"/>
<path d="M135.316 185.778C135.413 182.361 135.545 178.954 135.716 175.544C135.88 172.208 135.861 168.368 137.079 165.388C137.456 168.829 137.176 172.222 136.68 175.622C136.299 179.014 135.883 182.397 135.429 185.782L135.304 185.775L135.316 185.778Z" fill="#3D342D"/>
<path d="M149.552 199.266C152.989 198.632 156.439 198.039 159.884 197.47C163.26 196.921 167.09 196.087 170.349 196.646C166.989 197.757 163.517 198.192 160.018 198.442C156.544 198.788 153.053 199.105 149.568 199.397L149.549 199.278L149.552 199.266Z" fill="#3D342D"/>
<path d="M147.224 209.635C150.155 211.386 153.065 213.169 155.957 214.972C158.785 216.733 162.138 218.608 164.146 221.126C160.955 219.788 158.144 217.867 155.413 215.79C152.645 213.804 149.886 211.783 147.157 209.744L147.221 209.647L147.224 209.635Z" fill="#3D342D"/>
<path d="M138.864 215.712C139.9 218.518 140.895 221.338 141.861 224.175C142.716 226.616 144.17 230.469 143.924 232.922C142.429 230.274 141.601 227.397 140.927 224.459C140.167 221.562 139.445 218.663 138.754 215.746L138.875 215.715L138.864 215.712Z" fill="#3D342D"/>
<path d="M128.007 214.774C127.031 217.553 126.023 220.312 124.992 223.063C124.089 225.52 122.843 229.227 121.08 230.976C121.597 228.024 122.763 225.334 124.095 222.687C125.332 220.015 126.602 217.364 127.907 214.723L128.025 214.754L128.007 214.774Z" fill="#3D342D"/>
<path d="M120.129 206.538C117.603 208.072 115.048 209.572 112.487 211.046C110.335 212.311 106.736 214.51 104.393 214.687C106.679 212.723 109.306 211.381 112.035 210.179C114.696 208.897 117.375 207.644 120.071 206.422L120.132 206.526L120.129 206.538Z" fill="#3D342D"/>
<path d="M119.407 196.728C116.606 196.152 113.807 195.525 111.025 194.877C108.512 194.313 104.837 193.606 102.906 192.082C105.82 192.183 108.563 192.972 111.287 193.934C114.012 194.794 116.731 195.679 119.438 196.61L119.407 196.728Z" fill="#3D342D"/>
<path d="M124.842 188.637C122.834 186.068 120.856 183.482 118.911 180.866C117.099 178.462 114.549 175.319 113.784 172.535C116.172 174.813 118.025 177.492 119.715 180.307C121.49 183.042 123.223 185.791 124.938 188.561L124.842 188.637Z" fill="#3D342D"/>
<path d="M146.617 212.93C139.652 220.123 128.199 220.293 121.034 213.321C113.869 206.349 113.715 194.868 120.68 187.675C127.644 180.482 139.098 180.312 146.263 187.284C153.428 194.256 153.581 205.737 146.617 212.93Z" fill="#F9AD49" stroke="#3D342D" stroke-miterlimit="10"/>
<path d="M120.634 213.734C113.259 206.555 113.097 194.678 120.272 187.263C127.447 179.847 139.29 179.68 146.677 186.862C154.052 194.041 154.215 205.917 147.04 213.333C139.868 220.737 128.021 220.916 120.634 213.734ZM145.863 187.697C138.941 180.954 127.828 181.125 121.092 188.075C114.355 195.024 114.511 206.165 121.434 212.908C128.356 219.651 139.469 219.479 146.205 212.53C152.941 205.58 152.786 194.44 145.863 187.697Z" fill="#3D342D"/>
<path d="M132.945 196.882C130.463 199.44 127.087 200.179 125.391 198.528C123.696 196.877 124.334 193.464 126.816 190.906C129.298 188.349 132.673 187.61 134.369 189.261C136.065 190.912 135.426 194.325 132.945 196.882Z" fill="#FFFEF4" stroke="#3D342D" stroke-miterlimit="10"/>
<path d="M133.653 188.818C133.653 188.818 134.418 190.982 130.91 194.509C130.874 194.55 130.809 194.558 130.765 194.533L129.086 193.583C128.977 193.516 128.854 193.648 128.926 193.756L129.91 195.332C129.91 195.332 129.929 195.451 129.881 195.489C129.303 195.956 125.83 198.732 125.001 197.905C122.661 195.59 127.069 186.949 133.638 188.827L133.653 188.818Z" fill="#3D342D"/>
<path d="M142.996 206.681C140.514 209.238 137.138 209.977 135.443 208.326C133.747 206.675 134.385 203.262 136.867 200.705C139.349 198.147 142.725 197.408 144.42 199.059C146.116 200.71 145.478 204.123 142.996 206.681Z" fill="#FFFEF4" stroke="#3D342D" stroke-miterlimit="10"/>
<path d="M143.716 198.62C143.716 198.62 144.481 200.784 140.973 204.31C140.937 204.351 140.872 204.359 140.828 204.335L139.149 203.384C139.04 203.318 138.917 203.45 138.989 203.557L139.973 205.134C139.973 205.134 139.992 205.253 139.944 205.291C139.366 205.758 135.893 208.534 135.064 207.707C132.724 205.392 137.132 196.75 143.701 198.629L143.716 198.62Z" fill="#3D342D"/>
<path d="M128.351 198.312C128.351 198.312 128.994 203.987 135.543 205.658C135.543 205.658 127.766 210.914 125.381 208.485C123.01 206.048 128.351 198.312 128.351 198.312Z" fill="#3D342D"/>
<path d="M122.122 193.575C123.77 193.214 125.554 193.673 126.813 194.968C128.759 196.964 128.721 200.156 126.728 202.109C124.734 204.062 121.55 204.029 119.605 202.033" fill="#F9AD49"/>
<path d="M122.122 193.575C123.77 193.214 125.554 193.673 126.813 194.968C128.759 196.964 128.721 200.156 126.728 202.109C124.734 204.062 121.55 204.029 119.605 202.033" stroke="#3D342D" stroke-width="0.75" stroke-miterlimit="10" stroke-linecap="round"/>
<path d="M124.59 196.835C124.317 197.104 123.891 197.093 123.623 196.819C123.354 196.546 123.366 196.119 123.64 195.849C123.913 195.58 124.339 195.591 124.607 195.865C124.876 196.138 124.863 196.565 124.59 196.835Z" fill="#3D342D"/>
<path d="M126.08 199.836C125.807 200.106 125.381 200.094 125.112 199.821C124.844 199.547 124.856 199.12 125.129 198.851C125.403 198.581 125.829 198.593 126.097 198.866C126.365 199.14 126.353 199.567 126.08 199.836Z" fill="#3D342D"/>
<path d="M123.464 199.612C123.191 199.882 122.765 199.87 122.496 199.597C122.228 199.323 122.24 198.896 122.513 198.627C122.786 198.357 123.212 198.369 123.481 198.642C123.749 198.916 123.737 199.343 123.464 199.612Z" fill="#3D342D"/>
<path d="M140.168 212.071C140.577 210.432 140.147 208.623 138.887 207.327C136.942 205.332 133.758 205.299 131.765 207.252C129.771 209.205 129.734 212.397 131.679 214.392" fill="#F9AD49"/>
<path d="M140.168 212.071C140.577 210.432 140.147 208.623 138.887 207.327C136.942 205.332 133.758 205.299 131.765 207.252C129.771 209.205 129.734 212.397 131.679 214.392" stroke="#3D342D" stroke-width="0.75" stroke-miterlimit="10" stroke-linecap="round"/>
<path d="M136.967 209.527C136.694 209.797 136.694 210.227 136.95 210.497C137.219 210.771 137.648 210.771 137.918 210.513C138.191 210.244 138.191 209.813 137.935 209.543C137.667 209.27 137.237 209.27 136.967 209.527Z" fill="#3D342D"/>
<path d="M134.001 207.958C133.727 208.227 133.727 208.657 133.984 208.928C134.252 209.201 134.681 209.201 134.951 208.943C135.225 208.674 135.225 208.244 134.968 207.973C134.712 207.703 134.271 207.7 134.001 207.958Z" fill="#3D342D"/>
<path d="M134.176 210.585C133.903 210.855 133.902 211.285 134.159 211.555C134.427 211.829 134.856 211.829 135.126 211.571C135.396 211.314 135.4 210.872 135.143 210.601C134.875 210.328 134.446 210.328 134.176 210.585Z" fill="#3D342D"/>
<path d="M128.692 201.553C128.692 201.553 125.388 203.69 127.651 206.011C129.914 208.331 132.036 205.083 132.036 205.083C132.036 205.083 129.666 203.785 128.692 201.553Z" fill="#FFFEF4"/>
<path d="M140.706 188.205C140.706 188.205 137.53 184.517 132.094 185.748" stroke="#3D342D" stroke-miterlimit="10" stroke-linecap="round"/>
<path d="M146.914 196.265C146.914 196.265 149.665 200.271 147.113 205.24" stroke="#3D342D" stroke-miterlimit="10" stroke-linecap="round"/>
<path d="M74.6395 68.1697C74.92 68.4744 75.1239 68.7939 75.2513 69.1284C75.3789 69.4574 75.4432 69.7811 75.4442 70.0994C75.4426 70.4149 75.3823 70.7128 75.2634 70.9931C75.1445 71.2734 74.9761 71.5144 74.7582 71.716C74.6378 71.8275 74.5069 71.9246 74.3655 72.0075C74.2215 72.0876 74.0631 72.149 73.8902 72.1919C74.1117 72.3807 74.3544 72.5607 74.6181 72.7318C74.8441 72.8793 75.1113 73.0311 75.4197 73.1874C75.7284 73.3382 76.0618 73.4582 76.4199 73.5473C76.0983 73.7862 75.8147 74.0088 75.569 74.2148C75.3236 74.4153 75.1062 74.6031 74.917 74.7782C74.6618 75.0143 74.4547 75.2219 74.2957 75.401C74.1395 75.5774 74.0175 75.7275 73.9297 75.8513C73.8274 75.9939 73.7522 76.1141 73.7041 76.2118C73.5721 75.9242 73.4115 75.6257 73.2224 75.3164C73.0332 75.0071 72.8249 74.6943 72.5974 74.3779C72.3699 74.0616 72.1285 73.7474 71.8732 73.4355C71.6153 73.1207 71.3514 72.8167 71.0816 72.5235C70.7879 72.2045 70.4909 71.9019 70.1904 71.6159C69.8872 71.3269 69.5926 71.0674 69.3064 70.8372C69.0205 70.6015 68.747 70.3996 68.4859 70.2313C68.2249 70.0631 67.9883 69.9387 67.7762 69.8583C67.9535 69.774 68.126 69.673 68.2936 69.5552C68.4614 69.4318 68.6227 69.2985 68.7776 69.1552C68.9181 69.0252 69.0533 68.8895 69.1832 68.748C69.3133 68.601 69.4406 68.4566 69.565 68.3149C69.6894 68.1732 69.8108 68.0369 69.9292 67.906C70.045 67.7723 70.1588 67.6537 70.2706 67.5502C70.3911 67.4388 70.5389 67.3312 70.7143 67.2275C70.8925 67.1212 71.0932 67.0365 71.3166 66.9735C71.5374 66.9076 71.7776 66.8716 72.0374 66.8654C72.2971 66.8592 72.5689 66.8978 72.8527 66.9812C73.1365 67.0645 73.4277 67.2021 73.7265 67.394C74.0281 67.5833 74.3324 67.8418 74.6395 68.1697ZM72.8349 71.1407C72.8431 71.0054 72.8481 70.8464 72.8499 70.6638C72.8519 70.4757 72.8416 70.2856 72.8189 70.0937C72.7936 69.899 72.7513 69.7146 72.6921 69.5406C72.6356 69.364 72.5558 69.2196 72.4527 69.1075C72.3336 68.9782 72.2024 68.9106 72.0591 68.9049C71.916 68.8936 71.8 68.9291 71.7111 69.0113C71.6308 69.0856 71.5886 69.1753 71.5844 69.2803C71.583 69.3826 71.6062 69.4943 71.6538 69.6152C71.6987 69.7333 71.7629 69.8549 71.8462 69.98C71.9269 70.1023 72.0119 70.2205 72.1011 70.3348C72.1878 70.4463 72.2734 70.548 72.3581 70.6399C72.4401 70.729 72.5049 70.7994 72.5525 70.8512C72.5975 70.9 72.6425 70.9489 72.6874 70.9977C72.7324 71.0466 72.7816 71.0942 72.8349 71.1407Z" fill="white"/>
<path d="M88.616 63.3942C88.486 63.4467 88.3374 63.5168 88.1702 63.6047C88.0062 63.6904 87.8376 63.7864 87.6642 63.8929C87.494 63.9971 87.3261 64.1045 87.1604 64.2152C86.9957 64.3203 86.8476 64.4187 86.7162 64.5102C86.5858 64.5963 86.4789 64.6684 86.3955 64.7264C86.3122 64.7845 86.2673 64.8157 86.2609 64.8202C86.0644 64.9618 85.8563 65.121 85.6366 65.2978C85.449 65.4523 85.2369 65.6332 85.0005 65.8407C84.7695 66.0492 84.5335 66.2779 84.2924 66.5267C84.1853 66.2347 84.0502 65.9194 83.8871 65.5808C83.7217 65.239 83.5361 64.8851 83.3303 64.5191C83.1244 64.1531 82.9028 63.7815 82.6654 63.4042C82.4279 63.0269 82.1825 62.6551 81.929 62.289C81.72 61.9871 81.508 61.6945 81.2928 61.4111C81.0787 61.1223 80.8654 60.852 80.653 60.6C80.4438 60.3459 80.2382 60.1106 80.0362 59.8943C79.8374 59.6757 79.645 59.4836 79.4591 59.318C79.8347 59.1468 80.1638 58.9771 80.4464 58.8089C80.7322 58.6384 80.9793 58.4806 81.1877 58.3355C81.3191 58.244 81.435 58.1609 81.5353 58.0863C81.6335 58.0084 81.7156 57.9417 81.7816 57.8862C81.8583 57.8185 81.9238 57.7586 81.978 57.7066C82.0676 57.9869 82.1753 58.2832 82.3011 58.5954C82.427 58.9076 82.5664 59.2223 82.7194 59.5394C82.8734 59.851 83.0365 60.1587 83.2087 60.4624C83.3841 60.7639 83.5619 61.0447 83.742 61.3049C83.971 61.6357 84.1886 61.9054 84.3948 62.1141C84.5988 62.3195 84.7931 62.4698 84.9777 62.565C85.1633 62.6547 85.3383 62.6947 85.5026 62.685C85.6701 62.673 85.8292 62.6146 85.9798 62.5097C86.1818 62.369 86.3305 62.1584 86.426 61.8777C86.5225 61.5915 86.5461 61.2585 86.4969 60.8786L88.616 63.3942Z" fill="white"/>
<path d="M100.805 56.1181C100.572 56.191 100.351 56.2696 100.14 56.3538C99.9329 56.4363 99.7247 56.5258 99.5153 56.6223C98.9513 56.8822 98.3982 57.2038 97.8561 57.587C97.8384 57.4919 97.8273 57.4067 97.8229 57.3313C97.8204 57.2507 97.812 57.1664 97.7975 57.0785C97.7814 56.987 97.7561 56.8847 97.7215 56.7716C97.687 56.6585 97.6315 56.5184 97.5551 56.3515C97.4771 56.181 97.3908 56.0251 97.2961 55.8838C97.1997 55.7389 97.0999 55.6193 96.9966 55.525C96.8917 55.4271 96.7857 55.3598 96.6787 55.3231C96.5753 55.2848 96.4757 55.2877 96.3799 55.3318C96.2734 55.3809 96.1976 55.4545 96.1524 55.5528C96.1107 55.6494 96.0919 55.7634 96.0962 55.8948C96.104 56.0245 96.1298 56.1654 96.1735 56.3173C96.2207 56.4675 96.2809 56.6226 96.3541 56.7824C96.4272 56.9423 96.4994 57.0767 96.5708 57.1858C96.6441 57.2896 96.7126 57.3785 96.7765 57.4523C96.8438 57.5244 96.9054 57.5886 96.9611 57.6446C97.0152 57.6971 97.0622 57.7529 97.1021 57.8119C96.8443 57.8963 96.5933 57.9862 96.3491 58.0815C96.1085 58.1752 95.8711 58.276 95.6369 58.3839C95.4028 58.4918 95.1701 58.6077 94.9389 58.7314C94.7113 58.8535 94.478 58.9868 94.2391 59.1313C94.1666 58.3906 94.0681 57.6682 93.9437 56.9643C93.8228 56.2587 93.6754 55.561 93.5016 54.8712C93.3278 54.1814 93.1277 53.4951 92.9013 52.8124C92.6784 52.128 92.4287 51.4366 92.1522 50.7382C92.4309 50.6528 92.7305 50.547 93.0508 50.4209C93.373 50.2895 93.6991 50.1479 94.029 49.9958C94.3093 49.8666 94.5774 49.7345 94.8335 49.5993C95.093 49.4624 95.324 49.3194 95.5264 49.1702C95.8616 49.8373 96.231 50.4756 96.6345 51.0854C97.038 51.6951 97.4639 52.2881 97.9122 52.8643C98.3624 53.4353 98.8315 53.9912 99.3194 54.5319C99.8057 55.0691 100.301 55.5978 100.805 56.1181ZM95.9338 53.3567C95.8958 53.2925 95.8291 53.2028 95.7335 53.0878C95.6495 52.9888 95.5334 52.8617 95.385 52.7064C95.235 52.5476 95.0305 52.3493 94.7715 52.1117C94.8276 52.3095 94.8712 52.4894 94.9024 52.6514C94.9319 52.8098 94.9575 52.955 94.9792 53.087C94.9993 53.2154 95.0189 53.3332 95.0379 53.4406C95.0605 53.5463 95.0913 53.6418 95.1303 53.727C95.2115 53.9046 95.3157 54.0244 95.4428 54.0862C95.5718 54.1429 95.6878 54.1475 95.7906 54.1001C95.9006 54.0494 95.9685 53.9536 95.9942 53.8127C96.02 53.6718 95.9998 53.5198 95.9338 53.3567Z" fill="white"/>
<path d="M112.728 51.2707C112.653 51.2763 112.565 51.2844 112.464 51.295C112.378 51.3027 112.275 51.3155 112.155 51.3334C112.036 51.3513 111.899 51.3743 111.745 51.4024C111.445 51.4571 111.096 51.5347 110.698 51.6353C110.303 51.7352 109.872 51.8674 109.406 52.032C109.459 51.8436 109.493 51.6111 109.506 51.3346C109.52 51.0582 109.519 50.7665 109.503 50.4596C109.491 50.1482 109.468 49.8347 109.435 49.5191C109.402 49.2035 109.367 48.9101 109.33 48.6389C109.293 48.3677 109.257 48.1341 109.221 47.938C109.19 47.7412 109.167 47.6063 109.154 47.5333C109.152 47.5179 109.139 47.4587 109.116 47.3556C109.098 47.2518 109.071 47.1176 109.038 46.953C109.004 46.7884 108.964 46.6011 108.919 46.3911C108.872 46.1772 108.82 45.9563 108.763 45.7285C108.71 45.4999 108.651 45.2705 108.586 45.0402C108.524 44.8092 108.459 44.5927 108.391 44.3907C108.327 44.1881 108.261 44.0076 108.192 43.8493C108.127 43.6865 108.061 43.5615 107.994 43.4746C108.394 43.4729 108.756 43.4545 109.079 43.4193C109.403 43.3842 109.689 43.3438 109.939 43.2982C110.108 43.2673 110.257 43.2361 110.386 43.2046C110.519 43.1723 110.629 43.1443 110.716 43.1205C110.818 43.09 110.908 43.0616 110.987 43.0354C111.299 43.8202 111.624 44.5412 111.96 45.1984C112.297 45.8557 112.652 46.458 113.024 47.0055L112.982 46.769C112.857 46.1445 112.731 45.564 112.602 45.0276C112.545 44.7998 112.486 44.5703 112.425 44.3394C112.363 44.1084 112.298 43.8919 112.23 43.6899C112.166 43.4872 112.1 43.3067 112.031 43.1484C111.966 42.9856 111.9 42.8607 111.833 42.7737C112.23 42.7728 112.591 42.7543 112.918 42.7185C113.249 42.6819 113.539 42.6408 113.789 42.5952C113.958 42.5644 114.107 42.5332 114.237 42.5016C114.37 42.4694 114.48 42.4413 114.567 42.4175C114.669 42.387 114.759 42.3587 114.837 42.3324C114.83 42.5561 114.833 42.8037 114.846 43.0753C114.859 43.3469 114.88 43.635 114.907 43.9398C114.934 44.2446 114.97 44.5637 115.014 44.8971C115.062 45.2298 115.118 45.5711 115.181 45.9209C115.252 46.3168 115.334 46.7187 115.428 47.1266C115.52 47.5306 115.625 47.9324 115.74 48.3322C115.859 48.7274 115.987 49.1151 116.123 49.4953C116.262 49.871 116.41 50.2291 116.567 50.5698C116.496 50.5748 116.412 50.5822 116.314 50.592C116.232 50.599 116.133 50.6112 116.017 50.6284C115.901 50.6456 115.77 50.6675 115.624 50.6942C115.348 50.7447 115.031 50.8164 114.675 50.9092C114.318 51.0021 113.94 51.1248 113.539 51.2775C113.467 50.8815 113.365 50.5011 113.232 50.1363C113.102 49.767 112.946 49.4102 112.765 49.066C112.583 48.718 112.379 48.3819 112.154 48.0577C111.929 47.7335 111.687 47.4163 111.429 47.1061C111.498 47.4668 111.577 47.8295 111.667 48.1944C111.76 48.5585 111.861 48.9174 111.968 49.271C112.079 49.624 112.197 49.9697 112.322 50.3084C112.45 50.6424 112.585 50.9632 112.728 51.2707Z" fill="white"/>
<path d="M131.498 49.3739C131.409 49.3582 131.307 49.3414 131.191 49.3233C131.09 49.3065 130.972 49.2902 130.836 49.2743C130.7 49.2584 130.547 49.2428 130.376 49.2277C130.088 49.2023 129.762 49.1852 129.398 49.1766C129.038 49.1644 128.655 49.1698 128.249 49.1928C128.437 48.629 128.589 48.0836 128.707 47.5568C128.825 47.03 128.92 46.5599 128.992 46.1467C129.074 45.6638 129.138 45.2087 129.184 44.7814C129.201 44.5985 129.215 44.3978 129.226 44.1792C129.235 43.9918 129.245 43.775 129.255 43.5289C129.266 43.2788 129.274 43.009 129.28 42.7193C129.082 42.8783 128.882 43.0508 128.681 43.237C128.484 43.4196 128.293 43.6124 128.106 43.8155C127.92 44.0147 127.742 44.2187 127.575 44.4274C127.411 44.6365 127.265 44.8432 127.137 45.0475L127.675 40.6011C128.037 40.6762 128.42 40.7433 128.822 40.8024C129.229 40.8619 129.644 40.9103 130.068 40.9478C130.675 41.0014 131.278 41.0332 131.877 41.043C132.477 41.0528 133.029 41.0388 133.534 41.0011L133.348 45.5257C133.115 44.9679 132.848 44.4405 132.548 43.9433C132.251 43.4426 131.925 43.0177 131.567 42.6685C131.513 42.9303 131.464 43.2064 131.423 43.4969C131.385 43.7838 131.353 44.0789 131.326 44.3824C131.291 44.7754 131.267 45.181 131.253 45.5994C131.243 46.0143 131.243 46.4338 131.252 46.8582C131.265 47.2828 131.292 47.7068 131.333 48.1299C131.373 48.5531 131.428 48.9678 131.498 49.3739Z" fill="white"/>
<path d="M151.732 54.5652C151.529 54.4291 151.329 54.3053 151.131 54.1937C150.937 54.0839 150.737 53.9776 150.531 53.8747C149.975 53.5976 149.378 53.3677 148.741 53.1851C148.803 53.1116 148.863 53.0495 148.918 52.9987C148.979 52.9462 149.039 52.8867 149.099 52.8202C149.16 52.7502 149.223 52.6662 149.289 52.5683C149.355 52.4703 149.429 52.3391 149.511 52.1747C149.595 52.0068 149.662 51.8416 149.712 51.679C149.764 51.5129 149.794 51.3599 149.803 51.2201C149.813 51.0767 149.799 50.9518 149.76 50.8452C149.725 50.7404 149.66 50.6645 149.566 50.6174C149.461 50.5652 149.356 50.5522 149.251 50.5785C149.15 50.6066 149.05 50.6636 148.95 50.7494C148.854 50.8369 148.761 50.9454 148.671 51.0748C148.584 51.206 148.501 51.3503 148.423 51.5077C148.345 51.6651 148.285 51.8059 148.246 51.93C148.211 52.0524 148.185 52.1617 148.168 52.2578C148.154 52.3557 148.143 52.444 148.134 52.5227C148.127 52.5978 148.114 52.6695 148.093 52.7377C147.865 52.5895 147.638 52.4499 147.411 52.3192C147.187 52.1902 146.96 52.0681 146.729 51.9531C146.498 51.8381 146.262 51.7292 146.021 51.6264C145.784 51.5253 145.534 51.4269 145.272 51.3312C145.801 50.8096 146.3 50.2794 146.769 49.7404C147.241 49.2032 147.691 48.6503 148.117 48.0817C148.544 47.5131 148.951 46.9262 149.339 46.321C149.731 45.7175 150.111 45.0886 150.48 44.4345C150.721 44.5985 150.992 44.7659 151.29 44.9367C151.595 45.1058 151.909 45.2714 152.234 45.4335C152.511 45.5712 152.781 45.6976 153.047 45.8125C153.316 45.9293 153.572 46.0198 153.815 46.0841C153.507 46.7644 153.243 47.4534 153.023 48.151C152.803 48.8487 152.61 49.5533 152.443 50.2648C152.282 50.9746 152.145 51.6896 152.031 52.4098C151.919 53.1266 151.819 53.845 151.732 54.5652ZM150.82 49.0297C150.846 48.9597 150.873 48.8513 150.903 48.7045C150.927 48.5769 150.953 48.4064 150.98 48.1932C151.009 47.9764 151.035 47.6924 151.057 47.341C150.939 47.509 150.826 47.6559 150.72 47.7819C150.616 47.9044 150.519 48.0155 150.43 48.1153C150.343 48.2115 150.264 48.3008 150.192 48.383C150.124 48.467 150.069 48.5509 150.028 48.6349C149.941 48.8098 149.913 48.9662 149.945 49.1043C149.982 49.2405 150.051 49.3339 150.152 49.3845C150.261 49.4385 150.378 49.4314 150.503 49.363C150.629 49.2947 150.734 49.1836 150.82 49.0297Z" fill="white"/>
<path d="M172.556 64.2773C171.754 64.573 171.078 64.9718 170.525 65.4736C170.26 65.7154 170.013 65.9843 169.786 66.2806C169.561 66.5742 169.356 66.9005 169.17 67.2597C169.061 67.0578 168.953 66.8766 168.845 66.7162C168.737 66.5559 168.62 66.4061 168.494 66.2671C168.36 66.1193 168.211 65.9804 168.046 65.8505C167.881 65.7206 167.69 65.5908 167.473 65.461L168.328 65.0087C168.183 65.0348 168.025 65.052 167.853 65.0602C167.684 65.0657 167.51 65.0475 167.33 65.0054C167.152 64.9663 166.973 64.8966 166.793 64.7964C166.613 64.7017 166.438 64.5616 166.271 64.3762C166.019 64.098 165.854 63.7811 165.775 63.4256C165.698 63.0729 165.71 62.6983 165.809 62.3016C165.909 61.905 166.097 61.4934 166.375 61.0667C166.658 60.6403 167.033 60.2156 167.498 59.7926C167.807 59.5115 168.14 59.262 168.496 59.044C168.855 58.8235 169.221 58.6435 169.595 58.504C169.972 58.3619 170.351 58.2655 170.732 58.215C171.116 58.1618 171.486 58.1606 171.843 58.2113C172.202 58.2593 172.542 58.3646 172.863 58.5271C173.189 58.6899 173.483 58.9161 173.745 59.2059C173.984 59.4695 174.164 59.7249 174.288 59.9718C174.414 60.2161 174.497 60.4515 174.539 60.6778C174.583 60.9015 174.589 61.1122 174.558 61.31C174.531 61.5081 174.481 61.6912 174.406 61.8592C174.332 62.0272 174.243 62.1793 174.14 62.3155C174.039 62.449 173.935 62.5644 173.828 62.6616C173.675 62.8008 173.503 62.9073 173.311 62.981C173.123 63.0576 172.932 63.0967 172.738 63.0983C172.545 63.0999 172.357 63.0644 172.176 62.9918C171.994 62.9192 171.833 62.8047 171.691 62.6482C171.545 62.4859 171.442 62.3231 171.384 62.1596C171.326 61.9962 171.3 61.8398 171.308 61.6907C171.318 61.5389 171.354 61.398 171.415 61.2681C171.479 61.1411 171.561 61.033 171.659 60.9436C171.743 60.8674 171.841 60.8044 171.954 60.7546C172.067 60.7047 172.185 60.6717 172.307 60.6556C172.262 60.7281 172.237 60.7961 172.231 60.8595C172.228 60.9203 172.233 60.9732 172.248 61.0182C172.262 61.0687 172.287 61.117 172.323 61.1631C172.413 61.2616 172.5 61.3088 172.586 61.3047C172.674 61.3035 172.75 61.274 172.814 61.2162C172.843 61.19 172.865 61.1565 172.881 61.1157C172.902 61.0752 172.914 61.0301 172.917 60.9804C172.919 60.9306 172.909 60.8762 172.887 60.8169C172.868 60.7606 172.831 60.702 172.776 60.6412C172.739 60.6006 172.679 60.552 172.597 60.4953C172.519 60.4389 172.419 60.3897 172.297 60.3477C172.178 60.3086 172.036 60.2865 171.874 60.2813C171.714 60.2734 171.532 60.2991 171.327 60.3583C171.123 60.4175 170.898 60.5187 170.654 60.6617C170.409 60.8048 170.145 61.0051 169.862 61.2626C169.628 61.4754 169.44 61.6808 169.297 61.8787C169.158 62.0795 169.06 62.2686 169.004 62.4458C168.949 62.6231 168.934 62.7871 168.96 62.9379C168.988 63.0861 169.054 63.2167 169.156 63.3297C169.253 63.4369 169.36 63.5003 169.478 63.5199C169.596 63.5395 169.712 63.5342 169.827 63.5038C169.941 63.4734 170.047 63.4274 170.144 63.3657C170.241 63.304 170.318 63.2468 170.376 63.1943C170.379 63.1917 170.397 63.1704 170.429 63.1304C170.464 63.0934 170.496 63.0409 170.524 62.9731C170.552 62.9052 170.569 62.8216 170.573 62.7221C170.578 62.6227 170.555 62.5094 170.503 62.3823C170.812 62.7242 171.137 63.0544 171.478 63.3729C171.821 63.6888 172.181 63.9903 172.556 64.2773Z" fill="white"/>
<path d="M179.687 81.3233C179.595 81.0968 179.499 80.8818 179.399 80.6785C179.3 80.4785 179.194 80.2781 179.081 80.0771C178.778 79.5355 178.413 79.01 177.989 78.5007C178.082 78.475 178.165 78.4568 178.24 78.446C178.32 78.4368 178.403 78.4212 178.489 78.3994C178.579 78.3756 178.679 78.3418 178.788 78.2977C178.898 78.2537 179.033 78.1866 179.193 78.0963C179.356 78.004 179.504 77.9047 179.637 77.7982C179.773 77.6898 179.884 77.5801 179.969 77.469C180.058 77.356 180.117 77.2445 180.145 77.1345C180.174 77.0279 180.163 76.9287 180.112 76.8367C180.054 76.7345 179.975 76.6649 179.874 76.628C179.774 76.5944 179.659 76.5853 179.529 76.6006C179.401 76.6193 179.263 76.6568 179.115 76.7132C178.97 76.7731 178.82 76.8462 178.667 76.9327C178.514 77.0191 178.386 77.1026 178.284 77.183C178.186 77.265 178.104 77.3409 178.035 77.4109C177.969 77.4842 177.91 77.5511 177.859 77.6115C177.811 77.6699 177.76 77.7215 177.704 77.7663C177.599 77.5159 177.49 77.2727 177.375 77.0368C177.263 76.8043 177.143 76.5756 177.017 76.3508C176.891 76.126 176.757 75.9033 176.615 75.6827C176.476 75.4656 176.324 75.2438 176.161 75.0173C176.892 74.8826 177.602 74.7236 178.292 74.5402C178.984 74.3602 179.666 74.1544 180.338 73.9229C181.01 73.6914 181.676 73.4339 182.336 73.1504C182.999 72.8703 183.666 72.5628 184.338 72.2279C184.446 72.4992 184.575 72.7896 184.726 73.099C184.883 73.4098 185.05 73.7236 185.228 74.0405C185.379 74.3096 185.532 74.5663 185.687 74.8107C185.844 75.0585 186.005 75.2772 186.17 75.4669C185.533 75.8577 184.928 76.2803 184.355 76.7345C183.781 77.1888 183.226 77.664 182.689 78.1602C182.157 78.6578 181.642 79.1731 181.144 79.7059C180.649 80.2367 180.163 80.7759 179.687 81.3233ZM182.04 76.2253C182.101 76.182 182.184 76.1077 182.291 76.0026C182.383 75.9104 182.5 75.7838 182.642 75.6225C182.788 75.4594 182.969 75.2384 183.184 74.9597C182.992 75.0324 182.816 75.0911 182.658 75.1358C182.503 75.1786 182.36 75.2164 182.231 75.2491C182.105 75.2799 181.989 75.3094 181.884 75.3374C181.781 75.3688 181.688 75.4076 181.607 75.4537C181.437 75.5498 181.326 75.6639 181.275 75.7961C181.229 75.9297 181.234 76.0459 181.289 76.1447C181.348 76.2503 181.449 76.3101 181.591 76.3239C181.733 76.3378 181.883 76.305 182.04 76.2253Z" fill="white"/>
<path d="M186.61 96.3654C186.543 96.1197 186.475 95.8907 186.408 95.6785C186.337 95.4712 186.271 95.2793 186.208 95.1028C186.084 94.7571 185.971 94.4717 185.87 94.2467C185.765 94.023 185.675 93.8415 185.6 93.7024C185.513 93.5389 185.434 93.4116 185.364 93.3205C185.483 93.2941 185.595 93.2703 185.699 93.2492C185.804 93.2281 185.903 93.2046 185.998 93.1788C186.097 93.1553 186.194 93.1288 186.287 93.0993C186.385 93.0722 186.485 93.04 186.588 93.0029C186.992 92.8569 187.323 92.7189 187.579 92.589C187.837 92.4627 188.045 92.3376 188.204 92.2137C188.363 92.0899 188.482 91.9657 188.562 91.8414C188.642 91.717 188.708 91.5874 188.759 91.4525C188.591 91.5049 188.429 91.5571 188.274 91.6092C188.118 91.6612 187.954 91.7184 187.781 91.7808C187.612 91.8419 187.437 91.9092 187.256 91.9829C187.075 92.0566 186.885 92.1398 186.686 92.2325C186.487 92.3252 186.276 92.4324 186.054 92.5542C185.836 92.6745 185.601 92.8114 185.348 92.9648C185.362 92.9558 185.361 92.902 185.347 92.8034C185.332 92.7049 185.305 92.5757 185.264 92.4159C185.223 92.2562 185.17 92.0738 185.105 91.8689C185.045 91.6663 184.976 91.4566 184.899 91.2396C184.797 90.9564 184.687 90.6766 184.567 90.4001C184.443 90.1249 184.311 89.8839 184.171 89.6771C184.316 89.7242 184.488 89.7515 184.686 89.759C184.888 89.7689 185.104 89.7636 185.334 89.7431C185.563 89.7226 185.8 89.689 186.044 89.6421C186.29 89.599 186.53 89.5516 186.765 89.5001C187.314 89.3765 187.89 89.2183 188.493 89.0254C188.64 88.9723 188.826 88.9053 189.05 88.8243C189.275 88.7471 189.518 88.6551 189.779 88.5486C190.041 88.4457 190.307 88.3328 190.579 88.2098C190.851 88.0906 191.108 87.9606 191.348 87.8199C191.589 87.6829 191.803 87.5391 191.99 87.3886C192.177 87.2381 192.314 87.0826 192.402 86.9222C192.456 87.2015 192.521 87.4689 192.596 87.7243C192.674 87.9783 192.745 88.1936 192.808 88.3701C192.864 88.5246 192.918 88.6649 192.971 88.7909C193.026 88.9206 193.08 89.0485 193.134 89.1746C193.187 89.3007 193.243 89.4322 193.3 89.5693C193.357 89.7064 193.416 89.8595 193.477 90.0287C193.56 90.2604 193.631 90.4985 193.689 90.7432C193.752 90.9865 193.79 91.2261 193.804 91.462C193.823 91.7002 193.812 91.9304 193.771 92.1528C193.735 92.3775 193.661 92.5871 193.548 92.7815C193.44 92.9783 193.288 93.1558 193.092 93.314C192.896 93.4759 192.65 93.6105 192.352 93.718C192.187 93.7777 192.014 93.8154 191.833 93.831C191.653 93.8503 191.465 93.8413 191.269 93.804C191.077 93.7655 190.88 93.6955 190.677 93.5942C190.48 93.4951 190.281 93.3572 190.081 93.1803C190.068 93.4799 190.006 93.7244 189.896 93.9139C189.787 94.107 189.641 94.2695 189.46 94.4013C189.279 94.5332 189.07 94.644 188.833 94.734C188.6 94.8263 188.357 94.9225 188.102 95.0228C187.832 95.137 187.589 95.2642 187.374 95.4043C187.282 95.4622 187.191 95.5262 187.1 95.5965C187.01 95.6704 186.93 95.7472 186.859 95.8269C186.789 95.9102 186.731 95.9957 186.683 96.0835C186.637 96.1749 186.613 96.2688 186.61 96.3654ZM190.049 90.9867C190.136 91.0464 190.242 91.11 190.366 91.1774C190.495 91.2472 190.627 91.3052 190.764 91.3513C190.906 91.3997 191.048 91.4315 191.19 91.4465C191.333 91.4615 191.464 91.4472 191.586 91.4034C191.703 91.3609 191.786 91.2915 191.835 91.1951C191.884 91.1023 191.894 91.0137 191.864 90.9291C191.822 90.8114 191.733 90.7375 191.598 90.7075C191.466 90.6761 191.32 90.6667 191.158 90.6793C190.998 90.6956 190.84 90.7237 190.684 90.7633C190.533 90.8054 190.417 90.841 190.337 90.8702C190.293 90.8861 190.245 90.9034 190.193 90.922C190.146 90.9392 190.097 90.9608 190.049 90.9867Z" fill="white"/>
<path d="M194.79 109.574C194.166 109.7 193.616 109.738 193.14 109.691C192.665 109.643 192.248 109.537 191.889 109.374C191.534 109.21 191.232 109.004 190.983 108.755C190.739 108.506 190.533 108.242 190.366 107.965C190.204 107.691 190.078 107.415 189.987 107.138C189.897 106.862 189.829 106.614 189.786 106.396C189.712 106.024 189.663 105.704 189.637 105.434C189.608 105.169 189.577 104.95 189.542 104.778C189.504 104.582 189.457 104.366 189.402 104.13C189.347 103.894 189.282 103.646 189.207 103.387C189.415 103.452 189.641 103.501 189.886 103.531C190.136 103.565 190.393 103.585 190.657 103.591C190.921 103.598 191.185 103.595 191.45 103.582C191.718 103.571 191.976 103.556 192.223 103.534C192.802 103.481 193.391 103.399 193.99 103.287C194.582 103.16 195.133 103.019 195.644 102.865C195.862 102.797 196.078 102.724 196.293 102.644C196.513 102.568 196.718 102.487 196.908 102.401C197.102 102.315 197.273 102.223 197.421 102.125C197.57 102.032 197.683 101.933 197.762 101.829C197.773 102.122 197.795 102.397 197.83 102.653C197.866 102.912 197.903 103.14 197.942 103.335C197.967 103.462 197.995 103.584 198.026 103.701C198.058 103.818 198.09 103.939 198.122 104.064C198.155 104.189 198.189 104.322 198.225 104.462C198.262 104.606 198.298 104.768 198.334 104.948C198.385 105.208 198.421 105.486 198.439 105.781C198.463 106.079 198.448 106.377 198.396 106.675C198.344 106.976 198.246 107.273 198.101 107.565C197.955 107.857 197.743 108.131 197.463 108.386C197.183 108.641 196.825 108.871 196.387 109.074C195.954 109.281 195.422 109.447 194.79 109.574ZM194.358 106.739C194.806 106.649 195.177 106.56 195.471 106.473C195.764 106.387 195.995 106.298 196.165 106.208C196.339 106.122 196.456 106.032 196.518 105.94C196.579 105.848 196.6 105.752 196.58 105.653C196.563 105.565 196.501 105.493 196.394 105.439C196.292 105.388 196.137 105.357 195.928 105.348C195.719 105.338 195.455 105.351 195.135 105.387C194.82 105.423 194.44 105.485 193.996 105.574C193.529 105.668 193.14 105.758 192.831 105.844C192.526 105.933 192.284 106.02 192.106 106.103C191.928 106.191 191.806 106.277 191.739 106.362C191.677 106.451 191.655 106.543 191.674 106.638C191.711 106.826 191.946 106.934 192.378 106.963C192.81 106.992 193.47 106.917 194.358 106.739Z" fill="white"/>
<path d="M193.016 126.907C193.04 126.701 193.055 126.491 193.059 126.275C193.067 126.063 193.068 125.838 193.063 125.599C193.058 125.365 193.046 125.113 193.026 124.844C193.011 124.579 192.992 124.29 192.97 123.979C192.959 123.831 192.945 123.653 192.926 123.447C192.907 123.245 192.882 123.025 192.849 122.789C192.817 122.556 192.778 122.316 192.733 122.069C192.684 121.822 192.627 121.581 192.563 121.347C192.745 121.42 192.97 121.478 193.24 121.52C193.513 121.563 193.801 121.593 194.104 121.61C194.407 121.63 194.715 121.641 195.028 121.641C195.342 121.642 195.633 121.638 195.903 121.63C196.173 121.622 196.405 121.61 196.6 121.596C196.798 121.585 196.935 121.577 197.009 121.572C197.025 121.571 197.085 121.564 197.19 121.553C197.295 121.545 197.431 121.533 197.598 121.517C197.766 121.5 197.956 121.48 198.17 121.457C198.387 121.433 198.612 121.405 198.845 121.372C199.078 121.343 199.312 121.308 199.548 121.267C199.785 121.23 200.007 121.188 200.215 121.142C200.427 121.099 200.616 121.051 200.78 121C200.949 120.952 201.083 120.9 201.18 120.841C201.153 121.227 201.139 121.606 201.139 121.978C201.142 122.35 201.156 122.71 201.181 123.056C201.211 123.481 201.252 123.878 201.302 124.246C201.352 124.614 201.402 124.936 201.453 125.21C201.512 125.531 201.574 125.822 201.639 126.084L198.899 126.286C199.093 126.044 199.239 125.816 199.337 125.601C199.435 125.386 199.506 125.197 199.549 125.033C199.598 124.842 199.62 124.664 199.616 124.499C199.602 124.305 199.565 124.147 199.506 124.026C199.45 123.908 199.381 123.818 199.298 123.753C199.219 123.692 199.131 123.654 199.031 123.638C198.936 123.621 198.84 123.617 198.743 123.624C198.641 123.631 198.541 123.652 198.442 123.687C198.343 123.726 198.254 123.779 198.177 123.848C198.1 123.916 198.037 124.001 197.99 124.102C197.947 124.207 197.93 124.328 197.94 124.464C197.948 124.577 197.98 124.679 198.038 124.769C198.099 124.858 198.165 124.933 198.236 124.995C198.316 125.067 198.407 125.133 198.509 125.192L196.13 125.367C196.274 125.294 196.386 125.211 196.465 125.119C196.545 125.031 196.601 124.945 196.634 124.86C196.672 124.779 196.692 124.705 196.695 124.638C196.702 124.575 196.705 124.532 196.703 124.508C196.685 124.255 196.593 124.072 196.429 123.959C196.264 123.846 196.059 123.798 195.813 123.816C195.634 123.829 195.484 123.86 195.362 123.908C195.24 123.96 195.143 124.022 195.07 124.094C194.997 124.17 194.946 124.254 194.917 124.346C194.889 124.442 194.879 124.541 194.886 124.642C194.897 124.798 194.944 124.963 195.027 125.137C195.11 125.311 195.216 125.476 195.345 125.631C195.474 125.79 195.617 125.932 195.775 126.057C195.937 126.186 196.099 126.286 196.26 126.357L193.016 126.907Z" fill="white"/>
<path d="M193.659 138.072C193.67 137.999 193.681 137.911 193.693 137.81C193.704 137.724 193.714 137.621 193.723 137.5C193.732 137.379 193.739 137.241 193.746 137.085C193.758 136.78 193.759 136.423 193.748 136.012C193.737 135.605 193.702 135.156 193.644 134.665C193.816 134.758 194.036 134.841 194.303 134.914C194.569 134.987 194.854 135.049 195.157 135.099C195.464 135.154 195.775 135.2 196.09 135.236C196.405 135.271 196.699 135.301 196.972 135.323C197.245 135.345 197.48 135.36 197.68 135.368C197.878 135.38 198.015 135.387 198.089 135.39C198.105 135.391 198.165 135.391 198.271 135.391C198.376 135.396 198.513 135.399 198.681 135.402C198.849 135.404 199.04 135.406 199.255 135.407C199.474 135.407 199.701 135.404 199.936 135.398C200.171 135.395 200.408 135.387 200.647 135.373C200.885 135.363 201.111 135.346 201.323 135.323C201.535 135.304 201.726 135.278 201.895 135.246C202.068 135.218 202.204 135.18 202.304 135.133C202.218 135.524 202.157 135.882 202.12 136.205C202.084 136.528 202.06 136.816 202.05 137.07C202.043 137.242 202.041 137.394 202.043 137.527C202.046 137.664 202.049 137.777 202.053 137.867C202.06 137.973 202.068 138.067 202.077 138.15C201.243 138.285 200.468 138.447 199.753 138.634C199.037 138.821 198.372 139.037 197.756 139.282L197.996 139.292C198.633 139.305 199.227 139.307 199.779 139.297C200.013 139.291 200.25 139.282 200.489 139.272C200.728 139.262 200.954 139.245 201.166 139.222C201.377 139.203 201.568 139.178 201.738 139.145C201.911 139.117 202.047 139.079 202.147 139.032C202.061 139.42 201.999 139.777 201.963 140.104C201.926 140.435 201.902 140.727 201.892 140.981C201.885 141.152 201.883 141.305 201.885 141.438C201.888 141.575 201.891 141.688 201.895 141.778C201.903 141.884 201.911 141.978 201.919 142.061C201.702 142.005 201.46 141.955 201.192 141.909C200.924 141.863 200.638 141.821 200.335 141.782C200.032 141.743 199.713 141.709 199.378 141.68C199.042 141.655 198.697 141.636 198.342 141.622C197.94 141.606 197.53 141.6 197.111 141.603C196.697 141.606 196.282 141.621 195.866 141.648C195.454 141.679 195.048 141.719 194.647 141.77C194.25 141.825 193.868 141.892 193.502 141.972C193.512 141.902 193.523 141.818 193.535 141.721C193.546 141.639 193.556 141.54 193.565 141.423C193.573 141.306 193.581 141.173 193.587 141.025C193.598 140.744 193.597 140.419 193.585 140.052C193.572 139.684 193.536 139.287 193.475 138.863C193.877 138.878 194.27 138.861 194.655 138.809C195.044 138.762 195.427 138.687 195.802 138.584C196.182 138.482 196.554 138.356 196.92 138.206C197.286 138.056 197.648 137.889 198.008 137.703C197.64 137.693 197.269 137.692 196.893 137.701C196.518 137.713 196.145 137.734 195.777 137.762C195.408 137.795 195.045 137.835 194.687 137.884C194.333 137.937 193.99 137.999 193.659 138.072Z" fill="white"/>
</g>
<defs>
<clipPath id="clip0_44_439">
<rect width="191.252" height="219.378" fill="white" transform="translate(56.1387) rotate(14.8269)"/>
</clipPath>
</defs>
</svg>
