<svg width="97" height="75" viewBox="0 0 97 75" fill="none" xmlns="http://www.w3.org/2000/svg">
<g clip-path="url(#clip0_117_627)">
<path d="M2.39399 72.5616C18.6077 76.6515 35.8602 76.91 47.2188 62.8425C52.4578 56.3482 55.4273 48.4043 56.7596 40.247C58.0919 32.0897 58.9952 21.9774 57.4596 13.5055C54.8514 -0.92149 35.465 1.64031 34.1214 15.3706C32.631 30.7302 49.6238 39.3369 62.868 38.0223C80.9108 36.2246 91.9646 20.0897 96.831 4.12345C98.0842 -0.00014618 91.6033 -1.76419 90.35 2.34817C86.5111 14.9549 78.3478 28.5504 64.2342 31.1122C57.9113 32.2583 50.7077 31.0673 45.751 26.7751C43.3686 24.7077 41.4604 21.8313 40.9072 18.6965C40.2297 14.8088 44.4074 6.75267 49.3528 11.1122C51.7803 13.2583 51.1706 18.8201 51.1932 21.6178C51.2271 25.4605 51.1932 29.3145 50.877 33.1459C50.2673 40.6515 48.6302 48.2246 44.7122 54.7527C35.6343 69.8875 19.7142 70.0336 4.17795 66.1122C-0.0109724 65.056 -1.80622 71.5055 2.39399 72.5616Z" fill="#FF8E90"/>
</g>
<defs>
<clipPath id="clip0_117_627">
<rect width="75" height="97" fill="white" transform="translate(0 75) rotate(-90)"/>
</clipPath>
</defs>
</svg>
