<svg width="274" height="333" viewBox="0 0 274 333" fill="none" xmlns="http://www.w3.org/2000/svg">
<g clip-path="url(#clip0_98_275)">
<path d="M26.0959 107.869C21.0521 84.8768 31.5025 60.5416 52.0075 48.805C71.5632 37.6134 95.343 38.8381 114.33 50.4798C130.861 60.608 143.415 77.9351 145.621 97.4419C147.843 117.125 139.25 137.03 125.186 150.611C111.898 163.445 78.3341 180.376 69.294 154.435C60.2538 128.494 80.0814 107.589 102.272 99.8315C122.253 92.843 144.932 95.5265 163.656 104.966C184.467 115.457 199.507 134.373 207.632 156.002C227.479 208.855 206.388 264.529 176.734 309.025C174.827 311.882 179.413 314.617 181.319 311.76C210.932 267.338 231.959 212.048 214.284 158.897C206.244 134.711 190.419 112.928 167.54 100.976C147.222 90.3565 122.271 87.0314 100.425 94.8553C76.98 103.255 57.6737 124.825 62.87 151.044C65.2409 163.019 73.3728 173.287 86.3319 173.385C97.2824 173.466 108.564 169.192 117.669 163.332C135.752 151.683 148.504 131.96 150.896 110.498C153.322 88.8009 143.487 67.4709 127.19 53.3494C110.005 38.4572 86.6204 31.7869 64.4278 37.9264C39.6305 44.7872 21.6672 65.9129 19.6108 91.6384C19.1408 97.5048 19.6433 103.387 20.8947 109.123C21.6351 112.486 26.8242 111.229 26.0881 107.874L26.0959 107.869Z" fill="#FFE2DE"/>
</g>
<defs>
<clipPath id="clip0_98_275">
<rect width="147.305" height="298.261" fill="white" transform="translate(0 71.5366) rotate(-28.9153)"/>
</clipPath>
</defs>
</svg>
