<svg width="459" height="416" viewBox="0 0 459 416" fill="none" xmlns="http://www.w3.org/2000/svg">
<path d="M226.82 266.094L224.626 262.259L221.87 265.714L121.425 391.66L135.21 286.693L135.838 281.909L131.27 283.462L70.9268 303.977L113.838 257.332L117.024 253.869L112.54 252.442L9.92071 219.787L100.267 191.212L103.363 190.232L102.142 187.223L53.9315 68.4288L172.097 137.183L175.47 139.145L176.499 135.381L211.138 8.70596L273.857 143.988L275.565 147.67L278.584 144.957L346.733 83.7318L315.948 153.425L312.993 160.117L319.795 157.427L426.691 115.167L361.003 178.751L356.438 183.17L362.751 183.887L443.231 193.035L337.599 222.097L331.362 223.813L336.701 227.466L444.042 300.9L319.028 284.551L315.882 284.139L315.648 287.304L306.865 405.995L226.82 266.094Z" stroke="#FFE2DE" stroke-width="6"/>
</svg>
