<svg width="235" height="111" viewBox="0 0 235 111" fill="none" xmlns="http://www.w3.org/2000/svg">
<g clip-path="url(#clip0_142_280)">
<path d="M206.704 30.6L27.9499 31.8886C14.5462 31.9926 3.76241 42.9302 3.86811 56.3226C3.96088 69.7246 14.9002 80.4972 28.3021 80.4044L207.058 79.1045C220.46 79.0117 231.232 68.0725 231.14 54.6705C231.047 41.2686 220.108 30.496 206.706 30.5888L206.704 30.6Z" fill="#D0B6F4"/>
<path d="M84.5094 57.5587L77.9896 57.6056C78.1004 58.1915 78.3639 58.6696 78.7799 59.04C79.2092 59.3969 79.8104 59.5726 80.5838 59.567C81.1437 59.563 81.6696 59.4525 82.1614 59.2356C82.6531 59.0054 83.0442 58.6892 83.3346 58.2871C84.2311 58.7207 85.4211 59.1855 86.9047 59.6815C86.4981 60.6177 85.7502 61.3698 84.6609 61.9377C83.5849 62.4921 82.1736 62.7756 80.427 62.7882C78.1603 62.8045 76.4766 62.2967 75.3758 61.2646C74.2883 60.219 73.7384 58.843 73.7261 57.1363C73.7141 55.4697 74.2443 54.1125 75.3168 53.0648C76.3892 52.017 78.0655 51.4849 80.3454 51.4685C81.7054 51.4587 82.887 51.6769 83.8902 52.123C84.8934 52.5691 85.6647 53.1969 86.2038 54.0064C86.7429 54.8025 87.0162 55.7206 87.0237 56.7605C87.0262 57.1072 87.0147 57.3673 86.9893 57.5408L84.5094 57.5587ZM80.6472 54.4864C79.9805 54.4912 79.4348 54.6218 79.0099 54.8782C78.5851 55.1346 78.2876 55.4834 78.1174 55.9247L82.8373 55.8907C82.6743 55.4652 82.4118 55.127 82.05 54.8763C81.6881 54.6122 81.2205 54.4823 80.6472 54.4864ZM96.6863 56.8709L100.927 62.4405L95.9667 62.4762C95.7097 61.9714 95.2377 61.2348 94.5507 60.2664L94.086 59.6097C94.0068 59.7303 93.9144 59.8576 93.8087 59.9917C93.7163 60.1257 93.6241 60.2731 93.5319 60.4337C93.2679 60.809 93.0172 61.1775 92.7798 61.5392C92.5558 61.9008 92.3714 62.2221 92.2268 62.5032L87.2669 62.5389L91.4264 56.9088L87.3482 51.6181L92.2881 51.5825C92.4774 51.9544 92.8416 52.5318 93.3806 53.3146L94.0478 54.3099L94.6016 53.4458C95.1555 52.6018 95.5377 51.9724 95.748 51.5575L100.688 51.5219L96.6863 56.8709ZM110.379 51.2521C111.245 51.2459 112.027 51.4869 112.724 51.9752C113.421 52.4636 113.966 53.133 114.358 53.9835C114.751 54.8207 114.951 55.746 114.958 56.7593C114.966 57.7592 114.779 58.7073 114.399 59.6034C114.018 60.4861 113.477 61.2034 112.774 61.7551C112.085 62.2935 111.293 62.5658 110.4 62.5723C109.36 62.5798 108.465 62.3729 107.716 61.9516C106.979 61.5169 106.428 60.8475 106.061 59.9435C106.067 60.7034 106.102 61.9232 106.167 63.6028C106.232 65.229 106.267 66.3755 106.272 67.0421L101.752 67.0747C101.814 64.5942 101.836 62.0006 101.816 59.294C101.797 56.5874 101.738 53.9944 101.64 51.5151L105.48 51.4874L106.078 53.9832C106.445 53.0472 107 52.3632 107.743 51.9311C108.487 51.4858 109.365 51.2594 110.379 51.2521ZM108.294 58.9873C108.894 58.983 109.393 58.7928 109.79 58.4165C110.201 58.0269 110.404 57.5254 110.399 56.9121C110.394 56.2321 110.204 55.6802 109.827 55.2562C109.451 54.8322 108.943 54.6226 108.303 54.6272C107.569 54.6324 107.017 54.8164 106.647 55.1791C106.276 55.5285 106.093 56.1165 106.099 56.9431C106.103 57.4098 106.226 57.8022 106.468 58.1205C106.71 58.4254 106.998 58.65 107.333 58.7943C107.667 58.9252 107.988 58.9895 108.294 58.9873ZM121.048 54.2953C121.041 55.0954 121.043 56.3221 121.055 57.9754C121.069 59.962 121.093 61.4019 121.126 62.295L116.406 62.329L116.41 60.0689C116.419 57.5888 116.418 55.6754 116.408 54.3288C116.399 53.0488 116.373 51.2356 116.329 48.8892L116.294 46.7294L121.013 46.6954C121 48.5889 120.998 50.1356 121.007 51.3356C121.017 52.6689 121.03 53.6554 121.048 54.2953ZM129.175 62.437C126.895 62.4534 125.212 61.9455 124.124 60.9133C123.05 59.8677 122.507 58.4916 122.494 56.785C122.482 55.1184 123.006 53.7612 124.065 52.7136C125.138 51.6658 126.814 51.1337 129.094 51.1173C130.627 51.1062 131.909 51.3503 132.939 51.8496C133.983 52.3354 134.754 53.0032 135.254 53.853C135.753 54.6894 136.006 55.6343 136.014 56.6876C136.026 58.4075 135.463 59.7916 134.324 60.8399C133.198 61.888 131.482 62.4204 129.175 62.437ZM129.231 59.0365C130.097 59.0303 130.743 58.8189 131.166 58.4025C131.59 57.9861 131.799 57.4313 131.794 56.738C131.79 56.0847 131.572 55.5529 131.143 55.1426C130.713 54.719 130.065 54.5104 129.198 54.5166C128.332 54.5229 127.7 54.7341 127.303 55.1503C126.906 55.5665 126.71 56.1079 126.714 56.7746C126.719 57.4679 126.923 58.0198 127.326 58.4302C127.729 58.8407 128.364 59.0427 129.231 59.0365ZM142.043 54.1841C142.588 52.1668 143.974 51.1501 146.201 51.134C146.587 51.1313 146.961 51.1552 147.321 51.206L146.714 55.6905C145.751 55.3374 144.963 55.1631 144.35 55.1675C143.59 55.173 143.031 55.4036 142.675 55.8596C142.318 56.3155 142.142 56.9234 142.148 57.6834L142.148 57.6634L142.137 58.9835C142.144 59.9302 142.178 60.9833 142.24 62.1429L137.46 62.1773C137.553 60.2566 137.593 58.4429 137.581 56.7363C137.569 55.0297 137.502 53.2034 137.381 51.2576C138.262 51.2912 138.935 51.3064 139.402 51.303C139.895 51.2995 140.568 51.2746 141.421 51.2285L142.043 54.1841ZM158.941 57.0224L152.421 57.0694C152.532 57.6553 152.796 58.1334 153.212 58.5037C153.641 58.8606 154.242 59.0363 155.015 59.0307C155.575 59.0267 156.101 58.9162 156.593 58.6994C157.085 58.4691 157.476 58.153 157.766 57.7509C158.663 58.1844 159.853 58.6492 161.336 59.1452C160.93 60.0815 160.182 60.8336 159.093 61.4014C158.017 61.9559 156.605 62.2394 154.859 62.252C152.592 62.2683 150.908 61.7604 149.808 60.7283C148.72 59.6828 148.17 58.3067 148.158 56.6001C148.146 54.9335 148.676 53.5763 149.748 52.5285C150.821 51.4808 152.497 50.9487 154.777 50.9322C156.137 50.9224 157.319 51.1406 158.322 51.5867C159.325 52.0328 160.096 52.6606 160.636 53.4701C161.175 54.2662 161.448 55.1843 161.455 56.2243C161.458 56.5709 161.446 56.831 161.421 57.0045L158.941 57.0224ZM155.079 53.9502C154.412 53.955 153.866 54.0856 153.442 54.342C153.017 54.5984 152.719 54.9472 152.549 55.3884L157.269 55.3544C157.106 54.9289 156.843 54.5908 156.482 54.3401C156.12 54.076 155.652 53.946 155.079 53.9502Z" fill="white"/>
<path d="M212.697 54.0367L208.045 54.4882L212.203 56.6196L207.743 55.2526L210.762 58.8191L207.155 55.843L208.59 60.2901L206.392 56.1687L206.011 60.8228L205.559 56.1703L203.428 60.3281L204.797 55.8584L201.228 58.8872L204.205 55.2809L199.759 56.7047L203.879 54.5174L199.225 54.1364L203.877 53.6849L199.719 51.5535L204.179 52.9206L201.16 49.354L204.767 52.3301L203.332 47.8831L205.53 52.0044L205.911 47.3503L206.363 52.0028L208.494 47.845L207.127 52.3041L210.694 49.2859L207.718 52.8922L212.165 51.4579L208.043 53.6557L212.697 54.0367Z" fill="#FAFAFA"/>
<path d="M35.3616 55.3193L30.7197 55.7724L34.8775 57.9038L30.4077 56.5351L33.426 60.1017L29.8197 57.1256L31.254 61.5726L29.0667 57.4529L28.6751 62.1054L28.2342 57.4545L26.0922 61.6107L27.4593 57.1515L23.9033 60.1714L26.8688 56.5635L22.4218 57.9978L26.5537 55.8016L21.8996 55.4206L26.5415 54.9674L22.3943 52.8377L26.8534 54.2047L23.8352 50.6382L27.4415 53.6143L26.0072 49.1672L28.1945 53.2869L28.586 48.6345L29.027 53.2853L31.1689 49.1292L29.8019 53.5883L33.3579 50.5685L30.3924 54.1764L34.8378 52.7526L30.7075 54.9383L35.3616 55.3193Z" fill="#FAFAFA"/>
</g>
<defs>
<clipPath id="clip0_142_280">
<rect width="225" height="76.9901" fill="white" transform="translate(12.1631 0.339355) rotate(8.74721)"/>
</clipPath>
</defs>
</svg>
