<svg width="137" height="137" viewBox="0 0 137 137" fill="none" xmlns="http://www.w3.org/2000/svg">
<path d="M89.7973 6.07665C95.9059 0.0169496 106.22 5.16228 105.052 13.6871L102.925 29.2237C102.187 34.6147 106.364 39.4227 111.806 39.4446L127.487 39.5076C136.091 39.5422 139.746 50.4735 132.893 55.676L120.402 65.1577C116.068 68.4478 115.623 74.8015 119.455 78.6645L130.498 89.7975C136.558 95.9061 131.413 106.22 122.888 105.053L107.351 102.925C101.96 102.187 97.1524 106.365 97.1306 111.806L97.0675 127.487C97.033 136.092 86.1017 139.746 80.8991 132.893L71.4174 120.403C68.1274 116.069 61.7737 115.623 57.9106 119.455L46.7776 130.499C40.669 136.558 30.3552 131.413 31.5225 122.888L33.6499 107.352C34.3881 101.961 30.2106 97.1526 24.7693 97.1308L9.08789 97.0677C0.48359 97.0332 -3.17109 86.1019 3.68227 80.8993L16.1726 71.4176C20.5066 68.1276 20.9524 61.7739 17.1203 57.9108L6.07646 46.7778C0.0167557 40.6692 5.16208 30.3554 13.6869 31.5227L29.2235 33.6501C34.6145 34.3883 39.4225 30.2108 39.4444 24.7695L39.5074 9.08808C39.542 0.48378 50.4733 -3.1709 55.6758 3.68246L65.1575 16.1728C68.4476 20.5068 74.8013 20.9526 78.6643 17.1205L89.7973 6.07665Z" fill="#EB4D85"/>
</svg>
