<svg width="195" height="195" viewBox="0 0 195 195" fill="none" xmlns="http://www.w3.org/2000/svg">
<path d="M177.425 81.2654L151.903 83.2934C148.442 83.5597 145.185 81.5726 143.874 78.3564C143.874 78.3155 143.853 78.295 143.833 78.254C142.502 75.0378 143.382 71.33 146.025 69.0766L165.504 52.463C172.735 46.2969 173.165 35.2758 166.446 28.5566C159.728 21.8374 148.708 22.2676 142.543 29.4989L125.951 48.96C123.698 51.6026 119.97 52.504 116.754 51.1724L116.652 51.1315C113.436 49.7999 111.449 46.5427 111.715 43.0807L113.743 17.5765C114.501 8.11223 107.004 0 97.5 0C87.9958 0 80.5194 8.09175 81.2568 17.5765L83.2847 43.0807C83.551 46.5427 81.5641 49.7999 78.3482 51.1315L78.2253 51.1929C75.0095 52.5245 71.3225 51.6231 69.0693 48.9805L52.4575 29.4989C46.292 22.2676 35.2721 21.8374 28.5536 28.5566C21.8351 35.2758 22.2652 46.2969 29.4958 52.463L48.9753 69.0766C51.6177 71.33 52.4984 75.0173 51.1875 78.2335L51.1261 78.3769C49.7947 81.5931 46.5583 83.5802 43.0966 83.2934L17.5746 81.2654C8.11135 80.5074 0 88.0051 0 97.5102C0 107.015 8.09086 114.493 17.5746 113.735L43.0762 111.707C46.5378 111.44 49.7947 113.427 51.1261 116.644L51.1875 116.766C52.5189 119.983 51.6177 123.67 48.9753 125.923L29.4958 142.537C22.2652 148.703 21.8351 159.724 28.5536 166.443C35.2721 173.163 46.292 172.732 52.4575 165.501L69.0489 146.04C71.302 143.397 75.0299 142.496 78.2458 143.828L78.3482 143.869C81.5641 145.2 83.551 148.457 83.2847 151.919L81.2568 177.424C80.4989 186.888 87.9958 195 97.5 195C107.004 195 114.481 186.908 113.743 177.424L111.715 151.899C111.449 148.437 113.436 145.18 116.652 143.869C116.693 143.869 116.713 143.848 116.754 143.828C119.97 142.496 123.678 143.377 125.931 146.02L142.112 164.989C148.155 172.056 159.011 173.245 165.893 166.976C173.185 160.318 172.94 148.867 165.504 142.537L146.025 125.923C143.382 123.67 142.502 119.962 143.833 116.746C143.833 116.705 143.853 116.685 143.874 116.644C145.205 113.427 148.442 111.44 151.903 111.707L177.425 113.735C186.889 114.493 195 106.995 195 97.5102C195 88.0051 186.909 80.5279 177.425 81.2654Z" fill="#D9E021"/>
</svg>
